<svg id="assignment-24px" xmlns="http://www.w3.org/2000/svg" width="24.066" height="24.066" viewBox="0 0 24.066 24.066">
  <path id="Trazado_593" data-name="Trazado 593" d="M0,0H24.066V24.066H0Z" fill="none"/>
  <path id="Trazado_594" data-name="Trazado 594" d="M19.044,3.005H14.852a3,3,0,0,0-5.655,0H5.005A2.011,2.011,0,0,0,3,5.011V19.049a2.011,2.011,0,0,0,2.005,2.005H19.044a2.011,2.011,0,0,0,2.005-2.005V5.011A2.011,2.011,0,0,0,19.044,3.005Zm-7.019,0a1,1,0,1,1-1,1A1.006,1.006,0,0,1,12.025,3.005ZM14.03,17.044H7.011V15.038H14.03Zm3.008-4.011H7.011V11.027H17.038Zm0-4.011H7.011V7.016H17.038Z" transform="translate(0.008 0.003)" fill="#5e6d88"/>
</svg>
