<svg id="down-arrow" xmlns="http://www.w3.org/2000/svg" width="16" height="16" viewBox="0 0 16 16">
  <g id="Grupo_157" data-name="Grupo 157" transform="translate(0 9.781)">
    <g id="Grupo_156" data-name="Grupo 156">
      <path id="Trazado_589" data-name="Trazado 589" d="M14.75,313v4.344a.626.626,0,0,1-.625.625H1.875a.626.626,0,0,1-.625-.625V313H0v4.344a1.877,1.877,0,0,0,1.875,1.875h12.25A1.877,1.877,0,0,0,16,317.344V313Z" transform="translate(0 -313)" fill="#5e6d88"/>
    </g>
  </g>
  <g id="Grupo_159" data-name="Grupo 159" transform="translate(4.116)">
    <g id="Grupo_158" data-name="Grupo 158">
      <path id="Trazado_590" data-name="Trazado 590" d="M138.6,7.366l-2.375,2.375V0h-1.25V9.741L132.6,7.366l-.884.884,3.884,3.884,3.884-3.884Z" transform="translate(-131.716)" fill="#5e6d88"/>
    </g>
  </g>
</svg>
