<svg xmlns="http://www.w3.org/2000/svg" width="284.909" height="279.953" viewBox="0 0 284.909 279.953">
  <g id="Grupo_1182" data-name="Grupo 1182" transform="translate(-415.577 -174.289)">
    <path id="Trazado_30469" data-name="Trazado 30469" d="M561.141,268.538a16.142,16.142,0,0,0,2.964-3.158c8.3,2.179,17.1,1.938,25.666,1.153a217.55,217.55,0,0,0,32.345-5.46c3.669,7.307,11.025,12.592,18.96,13.266a26,26,0,0,1-6.962-16.889,29.612,29.612,0,0,0,8.869-5.373c8.688-7.9,10.957-26.2,8.231-37.856-2.6-11.107-6.738-19.177-15.178-26.5-8.358-7.254-15.465-11.088-29.339-12.65a109.544,109.544,0,0,0-35.7,1.538c-11.787,2.6-23.045,8.952-30.376,18.894a46.478,46.478,0,0,0-6.864,40.086,44.921,44.921,0,0,0,16.318,23.084c.746,6.409-2.472,12.1-7.1,17.529l5.472-1.287A30.087,30.087,0,0,0,561.141,268.538Z" transform="translate(-31.106)" fill="#f5f5f5"/>
    <g id="Grupo_992" data-name="Grupo 992" transform="translate(447.944 238.906)">
      <path id="Trazado_30470" data-name="Trazado 30470" d="M549.74,430.3c5.693-.179,3.011-8.531,2.871-17.615-.088-5.694-3.872-11.281-8-15.206a19.459,19.459,0,0,0-7.247-4.046,45.024,45.024,0,0,0-21.976-1.411S513.684,431.44,549.74,430.3Z" transform="translate(-474.632 -296.936)" fill="#dce2e2"/>
      <path id="Trazado_30471" data-name="Trazado 30471" d="M570.758,309.052c-.161.264-1.953,3.644-1.953,3.644s1.429-5.532,1.48-5.733c.463-1.806-.656-1.619-.983-.973-.339.667-2.361,6.11-2.361,6.11,1.9-7.113,1.305-7.739.771-7.851s-2.209,6.392-2.209,6.392a6.072,6.072,0,0,0-1.717-1.878c-1.718-1.182-4.58,0-4.719.807s.885,1.036.885,1.036a2.586,2.586,0,0,1,4.132,2.346,1.609,1.609,0,0,1-3.15.307c-.711-3.207-1.815-2.166-1.815-2.166l1.106,7.075-1.171,3.557-6.4,17.354-12.231-12.738s-6.541,14.457-6.694,14.942c-.1.326,6.133,6.813,10.233,11.031a11.575,11.575,0,0,0,19.566-5.428l4.837-24.922,2.264-8.168s.817-3.318,1.012-4.093C571.9,308.677,571.183,308.355,570.758,309.052Z" transform="translate(-479.54 -273.659)" fill="#ecb7b0"/>
      <g id="Grupo_817" data-name="Grupo 817" transform="translate(0 59.98)">
        <path id="Trazado_30472" data-name="Trazado 30472" d="M503.975,527.741s-4.615-4.122-12.974-4.463v-73.6h-3.1v73.645a24.33,24.33,0,0,0-12.74,4.415H487.9v.053H491v-.053Z" transform="translate(-463.877 -372.53)" fill="#1a2e35"/>
        <g id="Grupo_816" data-name="Grupo 816">
          <path id="Trazado_30473" data-name="Trazado 30473" d="M480.268,344.691a35.647,35.647,0,0,0-10.214.095c-3.35.672-6.632,2.417-8.415,5.331-1.793,2.932-1.848,6.568-1.848,10l-.007,43.477h38.847Z" transform="translate(-459.766 -344.368)" fill="#dce2e2"/>
          <path id="Trazado_30474" data-name="Trazado 30474" d="M459.779,421.07c-.174,8.568.623,15.532,6.952,18.9,4.736,2.521,10.464,2.579,15.909,2.573l23.586-.031c2.391,0,4.953-.055,6.906-1.348a6.683,6.683,0,0,0,2.672-6.573,12.355,12.355,0,0,0-3.589-6.468c-6.814-7.091-17.589-9.2-27.6-10.919" transform="translate(-459.759 -363.846)" fill="#dce2e2"/>
        </g>
      </g>
      <g id="Grupo_835" data-name="Grupo 835" transform="translate(25.954)">
        <g id="Grupo_828" data-name="Grupo 828" transform="translate(1.652)">
          <g id="Grupo_822" data-name="Grupo 822" transform="translate(1.269 7.523)">
            <g id="Grupo_821" data-name="Grupo 821">
              <g id="Grupo_820" data-name="Grupo 820">
                <g id="Grupo_818" data-name="Grupo 818">
                  <path id="Trazado_30475" data-name="Trazado 30475" d="M499.173,274.271l.043,2.18.438,32.637a7,7,0,0,0,7.4,6.678h0a7.4,7.4,0,0,0,7.436-7.086c.013-4.018.1-8.248.1-8.248s5.176-.859,6.249-7.614c.533-3.358.365-8.865.081-13.367a7.132,7.132,0,0,0-7.867-6.649Z" transform="translate(-499.173 -272.762)" fill="#ecb7b0"/>
                </g>
                <g id="Grupo_819" data-name="Grupo 819" transform="translate(6.377 25.257)">
                  <path id="Trazado_30476" data-name="Trazado 30476" d="M516.922,309.651a17.177,17.177,0,0,1-9.044-2.413s2.194,4.639,8.954,4.007Z" transform="translate(-507.878 -307.238)" fill="#d3a29f"/>
                </g>
              </g>
            </g>
          </g>
          <g id="Grupo_823" data-name="Grupo 823" transform="translate(0.046)">
            <path id="Trazado_30477" data-name="Trazado 30477" d="M520.809,271.2a3.343,3.343,0,0,1-3.16,3.207,10.694,10.694,0,0,1-5.025-1.028c-3.039-1.4-5.765.9-6.514,1.522s-1.6.8-4.533,1.793c0,0,.512,9.108-1.839,8.973-1.7-.1-2.168-10.107-2.233-14.473a2.974,2.974,0,0,1,2.82-3.009l13.7-2.832a7.417,7.417,0,0,0,2.467-1l2.776-1.76a.677.677,0,0,1,1.038.527Z" transform="translate(-497.504 -262.493)" fill="#4763a0"/>
          </g>
          <g id="Grupo_825" data-name="Grupo 825" transform="translate(0 6.17)">
            <g id="Grupo_824" data-name="Grupo 824">
              <path id="Trazado_30478" data-name="Trazado 30478" d="M497.443,271.086c-.032-.089.521-.3,1.17-.062s.945.744.863.792c-.078.064-.437-.27-.982-.459S497.462,271.186,497.443,271.086Z" transform="translate(-497.441 -270.916)" fill="#4763a0"/>
            </g>
          </g>
          <g id="Grupo_827" data-name="Grupo 827" transform="translate(1.752 4.353)">
            <g id="Grupo_826" data-name="Grupo 826">
              <path id="Trazado_30479" data-name="Trazado 30479" d="M500.03,268.435c.109.009.073.7.194,1.5s.465,1.377.381,1.437c-.065.067-.6-.487-.73-1.381A2.3,2.3,0,0,1,500.03,268.435Z" transform="translate(-499.832 -268.435)" fill="#4763a0"/>
            </g>
          </g>
        </g>
        <g id="Grupo_834" data-name="Grupo 834" transform="translate(0 17.284)">
          <g id="Grupo_830" data-name="Grupo 830">
            <g id="Grupo_829" data-name="Grupo 829">
              <path id="Trazado_30480" data-name="Trazado 30480" d="M499.132,286.324c-.1-.046-3.9-1.336-3.945,2.6s3.922,3.168,3.93,3.054S499.132,286.324,499.132,286.324Z" transform="translate(-495.187 -286.086)" fill="#ecb7b0"/>
            </g>
          </g>
          <g id="Grupo_833" data-name="Grupo 833" transform="translate(0.999 1.267)">
            <g id="Grupo_832" data-name="Grupo 832">
              <g id="Grupo_831" data-name="Grupo 831">
                <path id="Trazado_30481" data-name="Trazado 30481" d="M498.294,290.939c-.018-.012-.07.048-.186.1a.685.685,0,0,1-.513.005,1.7,1.7,0,0,1-.77-1.531,2.268,2.268,0,0,1,.2-.981.793.793,0,0,1,.522-.522.349.349,0,0,1,.4.193c.052.111.026.189.047.2s.085-.064.055-.228a.437.437,0,0,0-.152-.248.517.517,0,0,0-.379-.1.965.965,0,0,0-.723.6,2.336,2.336,0,0,0-.249,1.1,1.782,1.782,0,0,0,.984,1.711.734.734,0,0,0,.629-.1C498.286,291.034,498.308,290.946,498.294,290.939Z" transform="translate(-496.55 -287.815)" fill="#d3a29f"/>
              </g>
            </g>
          </g>
        </g>
      </g>
      <g id="Grupo_847" data-name="Grupo 847" transform="translate(10.573 41.447)">
        <g id="Grupo_846" data-name="Grupo 846">
          <g id="Grupo_836" data-name="Grupo 836">
            <path id="Trazado_30482" data-name="Trazado 30482" d="M475.646,337.6s-1.557,47.1-1.449,51.609l49.159-.573-4.046-24.983-.03-16.273,5.519,7,11.688-13.641-13.717-14.6,0,0a23.8,23.8,0,0,0-9.221-5.969,18.989,18.989,0,0,0-5.779-1.107h0a23.161,23.161,0,0,1-13.957.009c-.567.071-1.354.146-2.344.262l-.181.022a17.826,17.826,0,0,0-15.559,16.763Z" transform="translate(-474.192 -319.069)" fill="#ecf5f5" stroke="#6a79a2" stroke-miterlimit="10" stroke-width="1"/>
          </g>
          <g id="Grupo_843" data-name="Grupo 843" transform="translate(23.151 18.242)">
            <g id="Grupo_840" data-name="Grupo 840" transform="translate(3.534 3.439)">
              <g id="Grupo_837" data-name="Grupo 837" transform="translate(0 0.859)">
                <path id="Trazado_30483" data-name="Trazado 30483" d="M512.973,353.894a18.255,18.255,0,0,1-2.264-1.771l-.092-.077.081-.088.043-.046a18.947,18.947,0,0,1,2.082-2.073,18.883,18.883,0,0,1-1.914,2.229l-.042.045-.01-.165A18.432,18.432,0,0,1,512.973,353.894Z" transform="translate(-510.617 -349.837)" fill="#4763a0"/>
              </g>
              <g id="Grupo_838" data-name="Grupo 838" transform="translate(6.326 0.805)">
                <path id="Trazado_30484" data-name="Trazado 30484" d="M519.254,349.765a18.319,18.319,0,0,1,2.2,1.837l.086.078-.079.086-.045.048a18.861,18.861,0,0,1-2.079,2.071,18.9,18.9,0,0,1,1.911-2.226l.045-.048.007.163A18.312,18.312,0,0,1,519.254,349.765Z" transform="translate(-519.252 -349.763)" fill="#4763a0"/>
              </g>
              <g id="Grupo_839" data-name="Grupo 839" transform="translate(2.939)">
                <path id="Trazado_30485" data-name="Trazado 30485" d="M514.632,354.414a44.09,44.09,0,0,1,2.667-5.749,43.955,43.955,0,0,1-2.667,5.749Z" transform="translate(-514.628 -348.664)" fill="#4763a0"/>
              </g>
            </g>
            <g id="Grupo_841" data-name="Grupo 841">
              <path id="Trazado_30486" data-name="Trazado 30486" d="M521.193,354.962a.321.321,0,0,0,.114-.057c.078-.052.054-.186.051-.362l-.029-1.522c-.012-1.365-.029-3.266-.049-5.6q0-.888-.01-1.854,0-.483,0-.986v-.253a.072.072,0,0,0-.048-.081c-.086-.007-.319,0-.474,0l-4.435.014-10.162.012c-.027.01-.047,0-.044.072v1.007q0,.668,0,1.326,0,1.318,0,2.593c0,1.7-.006,3.338-.009,4.9v.582a.057.057,0,0,0,.048.065h.267l1.126,0,2.153.007,3.864.018,5.6.049,1.521.029.4.015a.443.443,0,0,1,.135.016.463.463,0,0,1-.135.015l-.4.015-1.521.029-5.6.048-3.864.018-2.153.008-1.126,0c-.1,0-.171,0-.305,0a.337.337,0,0,1-.288-.339v-.582c0-1.563-.006-3.2-.009-4.9q0-1.276,0-2.593,0-.658,0-1.326v-1.007a.355.355,0,0,1,.349-.377l10.162.012,4.435.015a4,4,0,0,1,.557.02.324.324,0,0,1,.212.316v.253q0,.5-.005.986,0,.966-.01,1.854c-.021,2.33-.037,4.231-.048,5.6l-.029,1.522c-.005.163.009.328-.092.386A.149.149,0,0,1,521.193,354.962Z" transform="translate(-505.793 -343.97)" fill="#4763a0"/>
            </g>
            <g id="Grupo_842" data-name="Grupo 842" transform="translate(0.156 1.706)">
              <path id="Trazado_30487" data-name="Trazado 30487" d="M521.446,346.413c0,.064-3.457.115-7.72.115s-7.72-.051-7.72-.115,3.456-.114,7.72-.114S521.446,346.35,521.446,346.413Z" transform="translate(-506.006 -346.299)" fill="#4763a0"/>
            </g>
            <circle id="Elipse_9055" data-name="Elipse 9055" cx="0.166" cy="0.166" r="0.166" transform="translate(1.047 0.918)" fill="#4763a0"/>
            <path id="Trazado_30488" data-name="Trazado 30488" d="M508.463,345.389a.166.166,0,1,1-.166-.166A.167.167,0,0,1,508.463,345.389Z" transform="translate(-506.418 -344.305)" fill="#4763a0"/>
            <path id="Trazado_30489" data-name="Trazado 30489" d="M509.371,345.389a.166.166,0,1,1-.166-.166A.167.167,0,0,1,509.371,345.389Z" transform="translate(-506.661 -344.305)" fill="#4763a0"/>
          </g>
          <g id="Grupo_844" data-name="Grupo 844" transform="translate(44.801 15.554)">
            <path id="Trazado_30490" data-name="Trazado 30490" d="M535.536,353.264a110.364,110.364,0,0,1,0-12.963,109.977,109.977,0,0,1,0,12.963Z" transform="translate(-535.346 -340.301)" fill="#1a2e35"/>
          </g>
          <g id="Grupo_845" data-name="Grupo 845" transform="translate(45.077 25.591)" opacity="0.2">
            <path id="Trazado_30491" data-name="Trazado 30491" d="M535.723,354a66.6,66.6,0,0,0,7.315,7.568l-1.785,2.151-5.519-7Z" transform="translate(-535.723 -354.002)"/>
          </g>
        </g>
        <path id="Trazado_30492" data-name="Trazado 30492" d="M491.975,340.071l2.385,20.875-5.372,3.243.531-8.88,1.453-.028,1-15.211" transform="translate(-478.149 -324.685)" opacity="0.2"/>
      </g>
      <g id="Grupo_914" data-name="Grupo 914" transform="translate(90.026 161.34)">
        <g id="Grupo_913" data-name="Grupo 913">
          <g id="Grupo_912" data-name="Grupo 912">
            <g id="Grupo_851" data-name="Grupo 851">
              <g id="Grupo_850" data-name="Grupo 850">
                <g id="Grupo_849" data-name="Grupo 849">
                  <g id="Grupo_848" data-name="Grupo 848">
                    <path id="Trazado_30493" data-name="Trazado 30493" d="M597.772,489.127l-3.1-6.4-12.028,5.724,4.431,9.414.769-.307c3.407-1.4,17.224-7.335,19.123-9.063C609.087,486.565,597.772,489.127,597.772,489.127Z" transform="translate(-582.647 -482.726)" fill="#6a79a2"/>
                  </g>
                </g>
              </g>
            </g>
            <g id="Grupo_855" data-name="Grupo 855" transform="translate(4.13 5.256)">
              <g id="Grupo_854" data-name="Grupo 854">
                <g id="Grupo_853" data-name="Grupo 853">
                  <g id="Grupo_852" data-name="Grupo 852">
                    <path id="Trazado_30494" data-name="Trazado 30494" d="M588.285,499.586a1.237,1.237,0,0,0,.218-.076l.611-.246,2.231-.945c1.878-.811,4.459-1.966,7.28-3.3s5.349-2.606,7.166-3.547l2.143-1.13.578-.317a1.166,1.166,0,0,0,.2-.12,1.281,1.281,0,0,0-.211.092l-.591.29-2.166,1.084c-1.829.915-4.364,2.165-7.184,3.5s-5.391,2.507-7.258,3.345l-2.21.991-.6.275A1.211,1.211,0,0,0,588.285,499.586Z" transform="translate(-588.285 -489.9)" fill="#1a2e35"/>
                  </g>
                </g>
              </g>
            </g>
            <g id="Grupo_859" data-name="Grupo 859" transform="translate(20.234 5.14)">
              <g id="Grupo_858" data-name="Grupo 858">
                <g id="Grupo_857" data-name="Grupo 857">
                  <g id="Grupo_856" data-name="Grupo 856">
                    <path id="Trazado_30495" data-name="Trazado 30495" d="M610.53,492.174a3.513,3.513,0,0,1,.26-2.429,2.151,2.151,0,0,0-.26,2.429Z" transform="translate(-610.267 -489.743)" fill="#1a2e35"/>
                  </g>
                </g>
              </g>
            </g>
            <g id="Grupo_863" data-name="Grupo 863" transform="translate(16.058 6.154)">
              <g id="Grupo_862" data-name="Grupo 862">
                <g id="Grupo_861" data-name="Grupo 861">
                  <g id="Grupo_860" data-name="Grupo 860">
                    <path id="Trazado_30496" data-name="Trazado 30496" d="M604.6,492.429a2.718,2.718,0,0,0,.16-1.3c-.045-.006-.117.282-.16.642A1.4,1.4,0,0,0,604.6,492.429Z" transform="translate(-604.566 -491.126)" fill="#1a2e35"/>
                  </g>
                </g>
              </g>
            </g>
            <g id="Grupo_867" data-name="Grupo 867" transform="translate(14.86 6.372)">
              <g id="Grupo_866" data-name="Grupo 866">
                <g id="Grupo_865" data-name="Grupo 865">
                  <g id="Grupo_864" data-name="Grupo 864">
                    <path id="Trazado_30497" data-name="Trazado 30497" d="M602.943,492.456c.041.018.171-.2.289-.484s.182-.53.141-.547-.171.2-.29.484S602.9,492.44,602.943,492.456Z" transform="translate(-602.931 -491.425)" fill="#1a2e35"/>
                  </g>
                </g>
              </g>
            </g>
            <g id="Grupo_871" data-name="Grupo 871" transform="translate(13.715 5.97)">
              <g id="Grupo_870" data-name="Grupo 870">
                <g id="Grupo_869" data-name="Grupo 869">
                  <g id="Grupo_868" data-name="Grupo 868">
                    <path id="Trazado_30498" data-name="Trazado 30498" d="M601.37,491.467a1.568,1.568,0,0,0,.666-.218c.349-.161.617-.325.6-.365a1.57,1.57,0,0,0-.665.218C601.62,491.263,601.351,491.427,601.37,491.467Z" transform="translate(-601.369 -490.875)" fill="#1a2e35"/>
                  </g>
                </g>
              </g>
            </g>
            <g id="Grupo_875" data-name="Grupo 875" transform="translate(13.124 5.287)">
              <g id="Grupo_874" data-name="Grupo 874">
                <g id="Grupo_873" data-name="Grupo 873">
                  <g id="Grupo_872" data-name="Grupo 872">
                    <path id="Trazado_30499" data-name="Trazado 30499" d="M600.562,490.517a1.954,1.954,0,0,0,1.475-.569,58.345,58.345,0,0,1-1.475.569Z" transform="translate(-600.562 -489.943)" fill="#1a2e35"/>
                  </g>
                </g>
              </g>
            </g>
            <g id="Grupo_879" data-name="Grupo 879" transform="translate(16 4.265)">
              <g id="Grupo_878" data-name="Grupo 878">
                <g id="Grupo_877" data-name="Grupo 877">
                  <g id="Grupo_876" data-name="Grupo 876">
                    <path id="Trazado_30500" data-name="Trazado 30500" d="M604.488,490.5a2.465,2.465,0,0,0,.771-.372,5,5,0,0,0,.737-.572,2.471,2.471,0,0,0,.379-.418.464.464,0,0,0,.078-.331.338.338,0,0,0-.264-.253,1.57,1.57,0,0,0-1.556,1.248,1.525,1.525,0,0,0-.007.635.494.494,0,0,0,.079.219,2.429,2.429,0,0,1,.039-.827,1.543,1.543,0,0,1,.456-.743,1.325,1.325,0,0,1,.952-.375c.166.032.187.2.089.346a2.538,2.538,0,0,1-.346.392,5.9,5.9,0,0,1-.7.585C604.771,490.332,604.476,490.472,604.488,490.5Z" transform="translate(-604.487 -488.548)" fill="#1a2e35"/>
                  </g>
                </g>
              </g>
            </g>
            <g id="Grupo_883" data-name="Grupo 883" transform="translate(14.61 4.948)">
              <g id="Grupo_882" data-name="Grupo 882">
                <g id="Grupo_881" data-name="Grupo 881">
                  <g id="Grupo_880" data-name="Grupo 880">
                    <path id="Trazado_30501" data-name="Trazado 30501" d="M604.2,490.689a.843.843,0,0,0-.166-.579,1.42,1.42,0,0,0-.48-.464.86.86,0,0,0-.831-.088.34.34,0,0,0-.069.47.94.94,0,0,0,.3.284,2.614,2.614,0,0,0,.587.294,1.249,1.249,0,0,0,.591.1c.005-.026-.22-.066-.549-.21a2.943,2.943,0,0,1-.544-.31c-.184-.113-.4-.372-.219-.5a.765.765,0,0,1,.665.086,1.421,1.421,0,0,1,.458.4A3.1,3.1,0,0,1,604.2,490.689Z" transform="translate(-602.59 -489.48)" fill="#1a2e35"/>
                  </g>
                </g>
              </g>
            </g>
            <g id="Grupo_887" data-name="Grupo 887" transform="translate(2.811 10.76)">
              <g id="Grupo_886" data-name="Grupo 886">
                <g id="Grupo_885" data-name="Grupo 885">
                  <g id="Grupo_884" data-name="Grupo 884">
                    <path id="Trazado_30502" data-name="Trazado 30502" d="M586.485,498.187c.016.026.33-.2.9-.39a4.174,4.174,0,0,1,4.345,1.014c.429.429.611.767.637.751a.751.751,0,0,0-.115-.243,3.48,3.48,0,0,0-.44-.586,4.046,4.046,0,0,0-4.466-1.043,3.525,3.525,0,0,0-.653.331A.789.789,0,0,0,586.485,498.187Z" transform="translate(-586.485 -497.413)" fill="#1a2e35"/>
                  </g>
                </g>
              </g>
            </g>
            <g id="Grupo_891" data-name="Grupo 891" transform="translate(1.677 5.934)">
              <g id="Grupo_890" data-name="Grupo 890">
                <g id="Grupo_889" data-name="Grupo 889">
                  <g id="Grupo_888" data-name="Grupo 888">
                    <path id="Trazado_30503" data-name="Trazado 30503" d="M584.939,490.826a46.511,46.511,0,0,0,2.287,4.974,46.511,46.511,0,0,0-2.287-4.974Z" transform="translate(-584.937 -490.826)" fill="#1a2e35"/>
                  </g>
                </g>
              </g>
            </g>
            <g id="Grupo_895" data-name="Grupo 895" transform="translate(9.704 9.435)">
              <g id="Grupo_894" data-name="Grupo 894">
                <g id="Grupo_893" data-name="Grupo 893">
                  <g id="Grupo_892" data-name="Grupo 892">
                    <path id="Trazado_30504" data-name="Trazado 30504" d="M595.894,497.245a10.943,10.943,0,0,0,3.532-1.637c-.024-.04-.787.381-1.76.831S595.879,497.2,595.894,497.245Z" transform="translate(-595.894 -495.605)" fill="#1a2e35"/>
                  </g>
                </g>
              </g>
            </g>
            <g id="Grupo_899" data-name="Grupo 899" transform="translate(7.344 12.176)">
              <g id="Grupo_898" data-name="Grupo 898">
                <g id="Grupo_897" data-name="Grupo 897">
                  <g id="Grupo_896" data-name="Grupo 896">
                    <path id="Trazado_30505" data-name="Trazado 30505" d="M592.673,499.362c-.015.044.143.136.309.278s.286.281.326.259-.029-.219-.222-.382S592.684,499.321,592.673,499.362Z" transform="translate(-592.672 -499.346)" fill="#1a2e35"/>
                  </g>
                </g>
              </g>
            </g>
            <g id="Grupo_903" data-name="Grupo 903" transform="translate(5.929 11.487)">
              <g id="Grupo_902" data-name="Grupo 902">
                <g id="Grupo_901" data-name="Grupo 901">
                  <g id="Grupo_900" data-name="Grupo 900">
                    <path id="Trazado_30506" data-name="Trazado 30506" d="M590.742,498.427c-.015.042.122.13.307.2s.346.088.361.046-.122-.13-.306-.2S590.757,498.385,590.742,498.427Z" transform="translate(-590.74 -498.405)" fill="#1a2e35"/>
                  </g>
                </g>
              </g>
            </g>
            <g id="Grupo_907" data-name="Grupo 907" transform="translate(4.415 11.379)">
              <g id="Grupo_906" data-name="Grupo 906">
                <g id="Grupo_905" data-name="Grupo 905">
                  <g id="Grupo_904" data-name="Grupo 904">
                    <path id="Trazado_30507" data-name="Trazado 30507" d="M588.678,498.487c.028.037.187-.04.393-.062s.378.012.4-.031-.16-.16-.415-.13S588.648,498.455,588.678,498.487Z" transform="translate(-588.674 -498.259)" fill="#1a2e35"/>
                  </g>
                </g>
              </g>
            </g>
            <g id="Grupo_911" data-name="Grupo 911" transform="translate(3.401 11.701)">
              <g id="Grupo_910" data-name="Grupo 910">
                <g id="Grupo_909" data-name="Grupo 909">
                  <g id="Grupo_908" data-name="Grupo 908">
                    <path id="Trazado_30508" data-name="Trazado 30508" d="M587.289,498.8c0,.045.1.073.22.064s.211-.052.208-.1-.1-.074-.22-.065S587.285,498.751,587.289,498.8Z" transform="translate(-587.289 -498.698)" fill="#1a2e35"/>
                  </g>
                </g>
              </g>
            </g>
          </g>
        </g>
      </g>
      <g id="Grupo_981" data-name="Grupo 981" transform="translate(53.169 204.444)">
        <g id="Grupo_980" data-name="Grupo 980">
          <g id="Grupo_979" data-name="Grupo 979">
            <g id="Grupo_918" data-name="Grupo 918" transform="translate(0.155)">
              <g id="Grupo_917" data-name="Grupo 917">
                <g id="Grupo_916" data-name="Grupo 916">
                  <g id="Grupo_915" data-name="Grupo 915">
                    <path id="Trazado_30509" data-name="Trazado 30509" d="M545.966,548.675l-.1-7.11-13.321.1.035,10.4.826.047c3.677.176,18.709.637,21.161-.127C557.3,551.138,545.966,548.675,545.966,548.675Z" transform="translate(-532.547 -541.565)" fill="#6a79a2"/>
                  </g>
                </g>
              </g>
            </g>
            <g id="Grupo_922" data-name="Grupo 922" transform="translate(0 10.053)">
              <g id="Grupo_921" data-name="Grupo 921">
                <g id="Grupo_920" data-name="Grupo 920">
                  <g id="Grupo_919" data-name="Grupo 919">
                    <path id="Trazado_30510" data-name="Trazado 30510" d="M532.336,555.435a1.223,1.223,0,0,0,.229.023l.658.035,2.421.087c2.045.059,4.872.1,7.995.085s5.949-.1,7.994-.185l2.42-.117.657-.043a1.171,1.171,0,0,0,.229-.026,1.312,1.312,0,0,0-.23-.007l-.659.013-2.421.066c-2.045.056-4.87.117-7.991.137s-5.946-.007-7.991-.037l-2.423-.036-.659-.005A1.265,1.265,0,0,0,532.336,555.435Z" transform="translate(-532.336 -555.288)" fill="#1a2e35"/>
                  </g>
                </g>
              </g>
            </g>
            <g id="Grupo_926" data-name="Grupo 926" transform="translate(17.923 8.347)">
              <g id="Grupo_925" data-name="Grupo 925">
                <g id="Grupo_924" data-name="Grupo 924">
                  <g id="Grupo_923" data-name="Grupo 923">
                    <path id="Trazado_30511" data-name="Trazado 30511" d="M556.826,555.053a3.518,3.518,0,0,1,1.263-2.091,2.15,2.15,0,0,0-1.263,2.091Z" transform="translate(-556.802 -552.958)" fill="#1a2e35"/>
                  </g>
                </g>
              </g>
            </g>
            <g id="Grupo_930" data-name="Grupo 930" transform="translate(13.997 7.36)">
              <g id="Grupo_929" data-name="Grupo 929">
                <g id="Grupo_928" data-name="Grupo 928">
                  <g id="Grupo_927" data-name="Grupo 927">
                    <path id="Trazado_30512" data-name="Trazado 30512" d="M551.448,552.727c.038.023.224-.207.416-.514s.317-.576.28-.6-.224.207-.417.514S551.41,552.7,551.448,552.727Z" transform="translate(-551.442 -551.612)" fill="#1a2e35"/>
                  </g>
                </g>
              </g>
            </g>
            <g id="Grupo_934" data-name="Grupo 934" transform="translate(12.917 7.155)">
              <g id="Grupo_933" data-name="Grupo 933">
                <g id="Grupo_932" data-name="Grupo 932">
                  <g id="Grupo_931" data-name="Grupo 931">
                    <path id="Trazado_30513" data-name="Trazado 30513" d="M549.972,552.09c.03.033.24-.109.467-.316s.388-.4.359-.436-.24.108-.467.316S549.942,552.057,549.972,552.09Z" transform="translate(-549.968 -551.333)" fill="#1a2e35"/>
                  </g>
                </g>
              </g>
            </g>
            <g id="Grupo_938" data-name="Grupo 938" transform="translate(12.23 6.582)">
              <g id="Grupo_937" data-name="Grupo 937">
                <g id="Grupo_936" data-name="Grupo 936">
                  <g id="Grupo_935" data-name="Grupo 935">
                    <path id="Trazado_30514" data-name="Trazado 30514" d="M549.03,550.628a3.044,3.044,0,1,0,.7-.078A1.568,1.568,0,0,0,549.03,550.628Z" transform="translate(-549.03 -550.55)" fill="#1a2e35"/>
                  </g>
                </g>
              </g>
            </g>
            <g id="Grupo_942" data-name="Grupo 942" transform="translate(11.99 5.761)">
              <g id="Grupo_941" data-name="Grupo 941">
                <g id="Grupo_940" data-name="Grupo 940">
                  <g id="Grupo_939" data-name="Grupo 939">
                    <path id="Trazado_30515" data-name="Trazado 30515" d="M548.7,549.443a1.951,1.951,0,0,0,1.576.108,56.931,56.931,0,0,1-1.576-.108Z" transform="translate(-548.702 -549.429)" fill="#1a2e35"/>
                  </g>
                </g>
              </g>
            </g>
            <g id="Grupo_946" data-name="Grupo 946" transform="translate(14.447 6.101)">
              <g id="Grupo_945" data-name="Grupo 945">
                <g id="Grupo_944" data-name="Grupo 944">
                  <g id="Grupo_943" data-name="Grupo 943">
                    <path id="Trazado_30516" data-name="Trazado 30516" d="M552.057,551.1a2.45,2.45,0,0,0,.856-.011,5.02,5.02,0,0,0,.91-.207,2.518,2.518,0,0,0,.52-.218.463.463,0,0,0,.21-.267.336.336,0,0,0-.133-.341,1.569,1.569,0,0,0-1.938.472,1.532,1.532,0,0,0-.276.573.478.478,0,0,0-.021.231,2.421,2.421,0,0,1,.385-.733,1.547,1.547,0,0,1,.728-.481,1.328,1.328,0,0,1,1.021.062c.137.1.085.26-.066.352a2.592,2.592,0,0,1-.479.209,5.888,5.888,0,0,1-.88.235C552.383,551.072,552.056,551.076,552.057,551.1Z" transform="translate(-552.057 -549.893)" fill="#1a2e35"/>
                  </g>
                </g>
              </g>
            </g>
            <g id="Grupo_950" data-name="Grupo 950" transform="translate(13.543 5.7)">
              <g id="Grupo_949" data-name="Grupo 949">
                <g id="Grupo_948" data-name="Grupo 948">
                  <g id="Grupo_947" data-name="Grupo 947">
                    <path id="Trazado_30517" data-name="Trazado 30517" d="M551.949,551a.846.846,0,0,0,.094-.595,1.4,1.4,0,0,0-.238-.623.858.858,0,0,0-.716-.431.34.34,0,0,0-.261.4.919.919,0,0,0,.148.382,2.636,2.636,0,0,0,.407.515,1.24,1.24,0,0,0,.492.343c.015-.021-.171-.152-.409-.422a3,3,0,0,1-.362-.511c-.119-.18-.2-.5.013-.545.214-.022.434.19.566.359a1.422,1.422,0,0,1,.246.555A3.106,3.106,0,0,1,551.949,551Z" transform="translate(-550.822 -549.346)" fill="#1a2e35"/>
                  </g>
                </g>
              </g>
            </g>
            <g id="Grupo_954" data-name="Grupo 954" transform="translate(0.246 6.46)">
              <g id="Grupo_953" data-name="Grupo 953">
                <g id="Grupo_952" data-name="Grupo 952">
                  <g id="Grupo_951" data-name="Grupo 951">
                    <path id="Trazado_30518" data-name="Trazado 30518" d="M532.672,550.477c0,.03.382-.04.984.027a4.176,4.176,0,0,1,3.508,2.757c.207.57.229.953.259.949a.759.759,0,0,0,0-.269,3.482,3.482,0,0,0-.15-.717,4.048,4.048,0,0,0-3.606-2.834,3.525,3.525,0,0,0-.733.024A.752.752,0,0,0,532.672,550.477Z" transform="translate(-532.672 -550.383)" fill="#1a2e35"/>
                  </g>
                </g>
              </g>
            </g>
            <g id="Grupo_958" data-name="Grupo 958" transform="translate(1.49 1.001)">
              <g id="Grupo_957" data-name="Grupo 957">
                <g id="Grupo_956" data-name="Grupo 956">
                  <g id="Grupo_955" data-name="Grupo 955">
                    <path id="Trazado_30519" data-name="Trazado 30519" d="M534.468,542.932a46.312,46.312,0,0,0-.032,5.475,46.315,46.315,0,0,0,.032-5.475Z" transform="translate(-534.37 -542.932)" fill="#1a2e35"/>
                  </g>
                </g>
              </g>
            </g>
            <g id="Grupo_962" data-name="Grupo 962" transform="translate(6.686 9.036)">
              <g id="Grupo_961" data-name="Grupo 961">
                <g id="Grupo_960" data-name="Grupo 960">
                  <g id="Grupo_959" data-name="Grupo 959">
                    <path id="Trazado_30520" data-name="Trazado 30520" d="M541.462,553.917a10.949,10.949,0,0,0,3.893.01c0-.047-.874.012-1.946.008S541.467,553.871,541.462,553.917Z" transform="translate(-541.462 -553.9)" fill="#1a2e35"/>
                  </g>
                </g>
              </g>
            </g>
            <g id="Grupo_966" data-name="Grupo 966" transform="translate(4.069 9.063)">
              <g id="Grupo_965" data-name="Grupo 965">
                <g id="Grupo_964" data-name="Grupo 964">
                  <g id="Grupo_963" data-name="Grupo 963">
                    <path id="Trazado_30521" data-name="Trazado 30521" d="M537.9,553.941c-.032.033.073.184.163.382s.14.376.186.373.067-.211-.04-.44S537.925,553.909,537.9,553.941Z" transform="translate(-537.891 -553.936)" fill="#1a2e35"/>
                  </g>
                </g>
              </g>
            </g>
            <g id="Grupo_970" data-name="Grupo 970" transform="translate(3.076 7.844)">
              <g id="Grupo_969" data-name="Grupo 969">
                <g id="Grupo_968" data-name="Grupo 968">
                  <g id="Grupo_967" data-name="Grupo 967">
                    <path id="Trazado_30522" data-name="Trazado 30522" d="M536.542,552.279c-.031.031.056.17.194.308s.277.226.308.194-.056-.17-.194-.308S536.573,552.247,536.542,552.279Z" transform="translate(-536.535 -552.272)" fill="#1a2e35"/>
                  </g>
                </g>
              </g>
            </g>
            <g id="Grupo_974" data-name="Grupo 974" transform="translate(1.67 7.223)">
              <g id="Grupo_973" data-name="Grupo 973">
                <g id="Grupo_972" data-name="Grupo 972">
                  <g id="Grupo_971" data-name="Grupo 971">
                    <path id="Trazado_30523" data-name="Trazado 30523" d="M534.617,551.5c.01.045.187.042.383.11s.338.171.372.14-.078-.214-.322-.293S534.6,551.462,534.617,551.5Z" transform="translate(-534.616 -551.425)" fill="#1a2e35"/>
                  </g>
                </g>
              </g>
            </g>
            <g id="Grupo_978" data-name="Grupo 978" transform="translate(0.665 7.013)">
              <g id="Grupo_977" data-name="Grupo 977">
                <g id="Grupo_976" data-name="Grupo 976">
                  <g id="Grupo_975" data-name="Grupo 975">
                    <path id="Trazado_30524" data-name="Trazado 30524" d="M533.246,551.169c-.016.042.061.109.171.152s.214.042.229,0-.061-.11-.172-.152S533.262,551.127,533.246,551.169Z" transform="translate(-533.244 -551.137)" fill="#1a2e35"/>
                  </g>
                </g>
              </g>
            </g>
          </g>
        </g>
      </g>
      <g id="Grupo_989" data-name="Grupo 989" transform="translate(12.129 96.619)">
        <g id="Grupo_988" data-name="Grupo 988">
          <g id="Grupo_982" data-name="Grupo 982">
            <path id="Trazado_30525" data-name="Trazado 30525" d="M476.635,409.839s61.041-17.794,66.55-15.2S571.534,461.1,571.534,461.1l-17.514,8.513L531.74,415.156s-43.361,16.882-50.317,15.45S476.635,409.839,476.635,409.839Z" transform="translate(-476.315 -394.381)" fill="#6a79a2"/>
          </g>
          <g id="Grupo_983" data-name="Grupo 983" transform="translate(4.759 13.653)">
            <path id="Trazado_30526" data-name="Trazado 30526" d="M504.135,413.018c.87.288,34.332,11.242,36.656,15.578s-1.091,82.272-1.091,82.272l-21.729-.039,1.477-74.247-36.637-.922Z" transform="translate(-482.812 -413.018)" fill="#6a79a2"/>
          </g>
          <g id="Grupo_985" data-name="Grupo 985" transform="translate(4.569 20.773)">
            <g id="Grupo_984" data-name="Grupo 984">
              <path id="Trazado_30527" data-name="Trazado 30527" d="M482.552,438.255a2.7,2.7,0,0,0,.539-.067l1.53-.273c1.327-.246,3.242-.626,5.6-1.13,4.719-1,11.217-2.517,18.3-4.555,3.538-1.029,6.881-2.1,9.9-3.142,3.007-1.073,5.7-2.077,7.921-3.029,1.119-.454,2.114-.9,2.987-1.3s1.623-.74,2.225-1.048l1.387-.7a2.6,2.6,0,0,0,.47-.27,2.619,2.619,0,0,0-.508.193l-1.42.627c-.611.284-1.367.612-2.251.979s-1.881.806-3.005,1.24c-2.229.915-4.928,1.886-7.935,2.938-3.019,1.018-6.358,2.076-9.89,3.1-7.066,2.034-13.543,3.593-18.243,4.67l-5.57,1.263-1.514.352A2.54,2.54,0,0,0,482.552,438.255Z" transform="translate(-482.552 -422.737)" fill="#6a79a2"/>
            </g>
          </g>
          <g id="Grupo_987" data-name="Grupo 987" transform="translate(53.812 24.059)">
            <g id="Grupo_986" data-name="Grupo 986">
              <path id="Trazado_30528" data-name="Trazado 30528" d="M559.2,449.562a5.353,5.353,0,0,0,.171-1.079c.082-.782.185-1.773.308-2.955.117-1.278.253-2.759.4-4.387a19.994,19.994,0,0,0,0-5.434,8.462,8.462,0,0,0-2.738-4.691,14.354,14.354,0,0,0-3.745-2.4,29.339,29.339,0,0,0-2.779-1.088,5.188,5.188,0,0,0-1.051-.3c-.031.077,1.447.588,3.7,1.666a14.82,14.82,0,0,1,3.607,2.412,8.213,8.213,0,0,1,2.586,4.484,20.648,20.648,0,0,1,.027,5.319c-.115,1.631-.22,3.114-.311,4.395-.069,1.187-.126,2.181-.171,2.966A5.342,5.342,0,0,0,559.2,449.562Z" transform="translate(-549.77 -427.222)" fill="#6a79a2"/>
            </g>
          </g>
        </g>
      </g>
      <g id="Grupo_990" data-name="Grupo 990" transform="translate(8.202 56.988)">
        <path id="Trazado_30529" data-name="Trazado 30529" d="M512.056,360.662l-18.734,17.023c-4.494,4.083-12.641,5.108-17.691,1.738-3.028-2.02-3.637-5.717-4.248-9.305-1.127-6.627.333-21.131.289-20.743l13.276.316-.628,14.263,22.565-12.759.407-.49c.249-.629.525-1.386.805-2.275a7.163,7.163,0,0,0,.327-2.409,13.343,13.343,0,0,0-.317-2.724c-.024-.06-.045-.136-.07-.188a.96.96,0,0,1-.089-.375.918.918,0,0,1,1.324-.986c.659.415,1.552,2.455,1.568,5.11,0,.042.008.081.01.123.09,2.694,2.587-.673,3.519-1.883s3.985-4.815,4.576-4.814c.867,0,1.029.954.072,2.14-.969,1.2-3.585,4.952-2.935,5.429s5.3-5.757,5.3-5.757.785-1.5,1.553-.971c1.385.948-4.045,7.191-4.576,7.772-.37.4.317.948.691.493s4.507-6.324,5.926-5.372c1.089.73-4.42,5.179-4.615,6.883s3.842-3.811,4.855-3.07c.377.275.62.536-2.144,3.357a84.946,84.946,0,0,1-7.13,5.946Z" transform="translate(-470.955 -340.283)" fill="#ecb7b0"/>
      </g>
      <g id="Grupo_991" data-name="Grupo 991" transform="translate(0.522 96.785)">
        <path id="Trazado_30530" data-name="Trazado 30530" d="M495.944,433.614c5.683-.374,3.011-8.53,2.871-17.614-.088-5.694-3.872-11.281-8-15.206a19.461,19.461,0,0,0-7.247-4.047,45.033,45.033,0,0,0-21.976-1.41S450.837,436.59,495.944,433.614Z" transform="translate(-460.471 -394.607)" fill="#dce2e2"/>
      </g>
    </g>
    <path id="Trazado_30531" data-name="Trazado 30531" d="M698.076,395.231H417.986a2.41,2.41,0,0,0,0,4.82h13.332V512.928h5.758V400.051H678.264V512.928h5.757V400.051h14.055a2.41,2.41,0,0,0,0-4.82Z" transform="translate(0 -59.083)" fill="#e1e1e1"/>
    <g id="Grupo_1174" data-name="Grupo 1174" transform="translate(549.223 247.32)">
      <path id="Trazado_30532" data-name="Trazado 30532" d="M663.141,441.3c-5.693-.179-3.011-8.531-2.871-17.614.088-5.7,3.872-11.282,8-15.206a19.45,19.45,0,0,1,7.247-4.047,45.024,45.024,0,0,1,21.976-1.411S699.2,442.438,663.141,441.3Z" transform="translate(-614.456 -308.291)" fill="#2cccd3"/>
      <path id="Trazado_30533" data-name="Trazado 30533" d="M663.141,441.3c-5.693-.179-3.011-8.531-2.871-17.614.088-5.7,3.872-11.282,8-15.206a19.45,19.45,0,0,1,7.247-4.047,45.024,45.024,0,0,1,21.976-1.411S699.2,442.438,663.141,441.3Z" transform="translate(-614.456 -308.291)" opacity="0.3"/>
      <g id="Grupo_995" data-name="Grupo 995" transform="translate(68.363 55.617)">
        <g id="Grupo_993" data-name="Grupo 993" transform="translate(12.532 76.401)">
          <rect id="Rectángulo_2229" data-name="Rectángulo 2229" width="3.099" height="74.905" transform="translate(16.074 74.905) rotate(180)" fill="#1a2e35"/>
          <path id="Trazado_30534" data-name="Trazado 30534" d="M737.245,554.76H708.431s5.184-4.538,14.524-4.389A25.05,25.05,0,0,1,737.245,554.76Z" transform="translate(-708.431 -479.906)" fill="#1a2e35"/>
        </g>
        <g id="Grupo_994" data-name="Grupo 994">
          <path id="Trazado_30535" data-name="Trazado 30535" d="M728.476,350.219a35.7,35.7,0,0,1,10.214.094c3.351.673,6.632,2.417,8.416,5.332,1.793,2.932,1.847,6.567,1.848,10q0,21.739.006,43.478H710.113Z" transform="translate(-696.349 -349.897)" fill="#2cccd3"/>
          <path id="Trazado_30536" data-name="Trazado 30536" d="M743.935,426.6c.163,8.568-.584,15.532-6.519,18.9-4.441,2.521-9.811,2.58-14.918,2.573l-22.117-.03c-2.242,0-4.645-.055-6.476-1.349a6.9,6.9,0,0,1-2.5-6.572,12.588,12.588,0,0,1,3.365-6.468c6.389-7.091,16.493-9.2,25.881-10.919" transform="translate(-691.324 -369.374)" fill="#2cccd3"/>
        </g>
      </g>
      <g id="Grupo_1173" data-name="Grupo 1173" transform="translate(0)">
        <g id="Grupo_1066" data-name="Grupo 1066" transform="translate(35.378 194.888)">
          <g id="Grupo_1064" data-name="Grupo 1064">
            <g id="Grupo_1063" data-name="Grupo 1063">
              <g id="Grupo_999" data-name="Grupo 999" transform="translate(0.045)">
                <g id="Grupo_998" data-name="Grupo 998">
                  <g id="Grupo_997" data-name="Grupo 997">
                    <g id="Grupo_996" data-name="Grupo 996">
                      <path id="Trazado_30537" data-name="Trazado 30537" d="M656.241,547.756l.2-7.75,14.519.288-.177,11.341-.9.04c-4.011.144-20.4.445-23.065-.42C643.85,550.289,656.241,547.756,656.241,547.756Z" transform="translate(-646.36 -540.006)" fill="#2cccd3"/>
                    </g>
                  </g>
                </g>
              </g>
              <g id="Grupo_1002" data-name="Grupo 1002" transform="translate(0 9.203)" opacity="0.4">
                <g id="Grupo_1001" data-name="Grupo 1001">
                  <g id="Grupo_1000" data-name="Grupo 1000">
                    <path id="Trazado_30538" data-name="Trazado 30538" d="M650.166,552.568s-4.349,1.162-3.823,1.884,17.1,1.042,24.427.542l-.017-.325-19.34-.207S651.011,552.62,650.166,552.568Z" transform="translate(-646.299 -552.568)" fill="#fff"/>
                  </g>
                </g>
              </g>
              <g id="Grupo_1006" data-name="Grupo 1006" transform="translate(0.044 10.839)">
                <g id="Grupo_1005" data-name="Grupo 1005">
                  <g id="Grupo_1004" data-name="Grupo 1004">
                    <g id="Grupo_1003" data-name="Grupo 1003">
                      <path id="Trazado_30539" data-name="Trazado 30539" d="M671,555.262a1.346,1.346,0,0,1-.25.023l-.718.029-2.641.063c-2.231.037-5.313.048-8.716-.015s-6.485-.188-8.712-.307l-2.637-.16-.716-.056a1.419,1.419,0,0,1-.249-.031,1.3,1.3,0,0,1,.251,0l.718.023,2.638.1c2.229.088,5.308.193,8.71.256s6.482.071,8.711.066l2.641-.007.719,0A1.388,1.388,0,0,1,671,555.262Z" transform="translate(-646.359 -554.802)" fill="#1a2e35"/>
                    </g>
                  </g>
                </g>
              </g>
              <g id="Grupo_1010" data-name="Grupo 1010" transform="translate(3.764 9.022)">
                <g id="Grupo_1009" data-name="Grupo 1009">
                  <g id="Grupo_1008" data-name="Grupo 1008">
                    <g id="Grupo_1007" data-name="Grupo 1007">
                      <path id="Trazado_30540" data-name="Trazado 30540" d="M652.787,554.622a3.842,3.842,0,0,0-1.349-2.3,2.345,2.345,0,0,1,1.349,2.3Z" transform="translate(-651.437 -552.321)" fill="#1a2e35"/>
                    </g>
                  </g>
                </g>
              </g>
              <g id="Grupo_1014" data-name="Grupo 1014" transform="translate(8.689 8.007)">
                <g id="Grupo_1013" data-name="Grupo 1013">
                  <g id="Grupo_1012" data-name="Grupo 1012">
                    <g id="Grupo_1011" data-name="Grupo 1011">
                      <path id="Trazado_30541" data-name="Trazado 30541" d="M658.911,552.161c-.042.025-.242-.229-.447-.566s-.338-.631-.3-.657.242.228.447.566S658.953,552.135,658.911,552.161Z" transform="translate(-658.159 -550.936)" fill="#1a2e35"/>
                    </g>
                  </g>
                </g>
              </g>
              <g id="Grupo_1018" data-name="Grupo 1018" transform="translate(9.734 7.796)">
                <g id="Grupo_1017" data-name="Grupo 1017">
                  <g id="Grupo_1016" data-name="Grupo 1016">
                    <g id="Grupo_1015" data-name="Grupo 1015">
                      <path id="Trazado_30542" data-name="Trazado 30542" d="M660.48,551.485c-.033.035-.259-.122-.5-.352s-.418-.444-.385-.48.259.122.505.352S660.513,551.45,660.48,551.485Z" transform="translate(-659.586 -550.648)" fill="#1a2e35"/>
                    </g>
                  </g>
                </g>
              </g>
              <g id="Grupo_1022" data-name="Grupo 1022" transform="translate(9.88 7.183)">
                <g id="Grupo_1021" data-name="Grupo 1021">
                  <g id="Grupo_1020" data-name="Grupo 1020">
                    <g id="Grupo_1019" data-name="Grupo 1019">
                      <path id="Trazado_30543" data-name="Trazado 30543" d="M661.3,549.9a3.329,3.329,0,1,1-.758-.094A1.713,1.713,0,0,1,661.3,549.9Z" transform="translate(-659.786 -549.811)" fill="#1a2e35"/>
                    </g>
                  </g>
                </g>
              </g>
              <g id="Grupo_1026" data-name="Grupo 1026" transform="translate(9.95 6.3)">
                <g id="Grupo_1025" data-name="Grupo 1025">
                  <g id="Grupo_1024" data-name="Grupo 1024">
                    <g id="Grupo_1023" data-name="Grupo 1023">
                      <path id="Trazado_30544" data-name="Trazado 30544" d="M661.6,548.621a2.135,2.135,0,0,1-1.721.1,67.41,67.41,0,0,0,1.721-.1Z" transform="translate(-659.881 -548.605)" fill="#1a2e35"/>
                    </g>
                  </g>
                </g>
              </g>
              <g id="Grupo_1030" data-name="Grupo 1030" transform="translate(6.252 6.615)">
                <g id="Grupo_1029" data-name="Grupo 1029">
                  <g id="Grupo_1028" data-name="Grupo 1028">
                    <g id="Grupo_1027" data-name="Grupo 1027">
                      <path id="Trazado_30545" data-name="Trazado 30545" d="M657.553,550.377a2.693,2.693,0,0,1-.933-.024,5.452,5.452,0,0,1-.989-.237,2.772,2.772,0,0,1-.563-.245.5.5,0,0,1-.226-.295.366.366,0,0,1,.149-.37,1.712,1.712,0,0,1,2.106.541,1.672,1.672,0,0,1,.292.629.517.517,0,0,1,.019.253,2.624,2.624,0,0,0-.41-.8,1.689,1.689,0,0,0-.787-.533,1.448,1.448,0,0,0-1.114.055c-.15.107-.1.282.067.383a2.777,2.777,0,0,0,.52.234,6.466,6.466,0,0,0,.956.268C657.2,550.34,657.554,550.348,657.553,550.377Z" transform="translate(-654.833 -549.036)" fill="#1a2e35"/>
                    </g>
                  </g>
                </g>
              </g>
              <g id="Grupo_1034" data-name="Grupo 1034" transform="translate(8.623 6.209)">
                <g id="Grupo_1033" data-name="Grupo 1033">
                  <g id="Grupo_1032" data-name="Grupo 1032">
                    <g id="Grupo_1031" data-name="Grupo 1031">
                      <path id="Trazado_30546" data-name="Trazado 30546" d="M658.176,550.27a.919.919,0,0,1-.1-.65,1.524,1.524,0,0,1,.268-.677.937.937,0,0,1,.785-.461.372.372,0,0,1,.28.437,1.029,1.029,0,0,1-.167.414,2.832,2.832,0,0,1-.451.556,1.347,1.347,0,0,1-.541.367c-.015-.023.189-.164.452-.454a3.231,3.231,0,0,0,.4-.552c.132-.195.226-.547-.007-.594-.233-.027-.476.2-.622.385a1.527,1.527,0,0,0-.276.6A3.362,3.362,0,0,0,658.176,550.27Z" transform="translate(-658.069 -548.481)" fill="#1a2e35"/>
                    </g>
                  </g>
                </g>
              </g>
              <g id="Grupo_1038" data-name="Grupo 1038" transform="translate(19.224 7.208)">
                <g id="Grupo_1037" data-name="Grupo 1037">
                  <g id="Grupo_1036" data-name="Grupo 1036">
                    <g id="Grupo_1035" data-name="Grupo 1035">
                      <path id="Trazado_30547" data-name="Trazado 30547" d="M677.779,549.959c0,.032-.415-.048-1.073.017a4.547,4.547,0,0,0-3.861,2.958c-.234.618-.263,1.036-.3,1.031a.856.856,0,0,1,.005-.293,3.848,3.848,0,0,1,.174-.78,4.413,4.413,0,0,1,3.968-3.04,3.748,3.748,0,0,1,.8.036A.822.822,0,0,1,677.779,549.959Z" transform="translate(-672.541 -549.845)" fill="#1a2e35"/>
                    </g>
                  </g>
                </g>
              </g>
              <g id="Grupo_1042" data-name="Grupo 1042" transform="translate(22.964 1.251)">
                <g id="Grupo_1041" data-name="Grupo 1041">
                  <g id="Grupo_1040" data-name="Grupo 1040">
                    <g id="Grupo_1039" data-name="Grupo 1039">
                      <path id="Trazado_30548" data-name="Trazado 30548" d="M677.755,541.713a25.107,25.107,0,0,1,.069,2.984,25.453,25.453,0,0,1-.108,2.984,50.484,50.484,0,0,1,.039-5.968Z" transform="translate(-677.645 -541.713)" fill="#1a2e35"/>
                    </g>
                  </g>
                </g>
              </g>
              <g id="Grupo_1046" data-name="Grupo 1046" transform="translate(13.165 9.901)">
                <g id="Grupo_1045" data-name="Grupo 1045">
                  <g id="Grupo_1044" data-name="Grupo 1044">
                    <g id="Grupo_1043" data-name="Grupo 1043">
                      <path id="Trazado_30549" data-name="Trazado 30549" d="M668.514,553.581a11.939,11.939,0,0,1-4.244-.042c.006-.05.953.026,2.122.035S668.509,553.529,668.514,553.581Z" transform="translate(-664.27 -553.522)" fill="#1a2e35"/>
                    </g>
                  </g>
                </g>
              </g>
              <g id="Grupo_1050" data-name="Grupo 1050" transform="translate(19.827 10.004)">
                <g id="Grupo_1049" data-name="Grupo 1049">
                  <g id="Grupo_1048" data-name="Grupo 1048">
                    <g id="Grupo_1047" data-name="Grupo 1047">
                      <path id="Trazado_30550" data-name="Trazado 30550" d="M673.792,553.668c.034.037-.082.2-.182.415s-.158.407-.208.4-.07-.231.049-.479S673.761,553.633,673.792,553.668Z" transform="translate(-673.363 -553.662)" fill="#1a2e35"/>
                    </g>
                  </g>
                </g>
              </g>
              <g id="Grupo_1054" data-name="Grupo 1054" transform="translate(20.791 8.689)">
                <g id="Grupo_1053" data-name="Grupo 1053">
                  <g id="Grupo_1052" data-name="Grupo 1052">
                    <g id="Grupo_1051" data-name="Grupo 1051">
                      <path id="Trazado_30551" data-name="Trazado 30551" d="M675.241,551.874c.034.034-.062.184-.215.333s-.3.243-.339.207.063-.184.216-.333S675.207,551.839,675.241,551.874Z" transform="translate(-674.68 -551.867)" fill="#1a2e35"/>
                    </g>
                  </g>
                </g>
              </g>
              <g id="Grupo_1058" data-name="Grupo 1058" transform="translate(22.066 8.028)">
                <g id="Grupo_1057" data-name="Grupo 1057">
                  <g id="Grupo_1056" data-name="Grupo 1056">
                    <g id="Grupo_1055" data-name="Grupo 1055">
                      <path id="Trazado_30552" data-name="Trazado 30552" d="M677.253,551.053c-.011.049-.2.043-.418.114s-.371.182-.408.148.087-.231.355-.316S677.268,551.008,677.253,551.053Z" transform="translate(-676.42 -550.965)" fill="#1a2e35"/>
                    </g>
                  </g>
                </g>
              </g>
              <g id="Grupo_1062" data-name="Grupo 1062" transform="translate(23.556 7.814)">
                <g id="Grupo_1061" data-name="Grupo 1061">
                  <g id="Grupo_1060" data-name="Grupo 1060">
                    <g id="Grupo_1059" data-name="Grupo 1059">
                      <path id="Trazado_30553" data-name="Trazado 30553" d="M678.895,550.708c.017.045-.068.118-.19.163s-.233.043-.25,0,.068-.119.19-.163S678.878,550.662,678.895,550.708Z" transform="translate(-678.453 -550.673)" fill="#1a2e35"/>
                    </g>
                  </g>
                </g>
              </g>
            </g>
          </g>
          <g id="Grupo_1065" data-name="Grupo 1065" transform="translate(9.95 4.664)" opacity="0.3">
            <path id="Trazado_30554" data-name="Trazado 30554" d="M674.381,548.641l-14.5-.52.056-1.748,14.567.381Z" transform="translate(-659.881 -546.373)"/>
          </g>
        </g>
        <g id="Grupo_1137" data-name="Grupo 1137" transform="translate(0 161.247)">
          <g id="Grupo_1135" data-name="Grupo 1135">
            <g id="Grupo_1134" data-name="Grupo 1134">
              <g id="Grupo_1070" data-name="Grupo 1070" transform="translate(0.066)">
                <g id="Grupo_1069" data-name="Grupo 1069">
                  <g id="Grupo_1068" data-name="Grupo 1068">
                    <g id="Grupo_1067" data-name="Grupo 1067">
                      <path id="Trazado_30555" data-name="Trazado 30555" d="M608.465,501.269l2.911-7.184,13.494,5.367-4.149,10.557-.858-.279c-3.806-1.275-19.26-6.748-21.449-8.493C595.973,499.291,608.465,501.269,608.465,501.269Z" transform="translate(-598.098 -494.085)" fill="#2cccd3"/>
                    </g>
                  </g>
                </g>
              </g>
              <g id="Grupo_1073" data-name="Grupo 1073" transform="translate(0 6.306)" opacity="0.4">
                <g id="Grupo_1072" data-name="Grupo 1072">
                  <g id="Grupo_1071" data-name="Grupo 1071">
                    <path id="Trazado_30556" data-name="Trazado 30556" d="M602.258,502.8s-4.479-.439-4.241.423,15.648,6.979,22.681,9.084l.1-.311-18.036-6.984S603.031,503.15,602.258,502.8Z" transform="translate(-598.008 -502.692)" fill="#fff"/>
                  </g>
                </g>
              </g>
              <g id="Grupo_1077" data-name="Grupo 1077" transform="translate(0.094 6.612)">
                <g id="Grupo_1076" data-name="Grupo 1076">
                  <g id="Grupo_1075" data-name="Grupo 1075">
                    <g id="Grupo_1074" data-name="Grupo 1074">
                      <path id="Trazado_30557" data-name="Trazado 30557" d="M621.045,512.188a1.336,1.336,0,0,1-.242-.067l-.682-.224-2.5-.868c-2.1-.749-4.991-1.82-8.156-3.074s-6.006-2.453-8.049-3.346l-2.413-1.076-.651-.3a1.36,1.36,0,0,1-.222-.116,1.3,1.3,0,0,1,.236.084l.664.273,2.434,1.024c2.056.865,4.9,2.044,8.065,3.3s6.044,2.342,8.134,3.12l2.475.921.671.256A1.29,1.29,0,0,1,621.045,512.188Z" transform="translate(-598.136 -503.111)" fill="#1a2e35"/>
                    </g>
                  </g>
                </g>
              </g>
              <g id="Grupo_1081" data-name="Grupo 1081" transform="translate(4.214 6.215)">
                <g id="Grupo_1080" data-name="Grupo 1080">
                  <g id="Grupo_1079" data-name="Grupo 1079">
                    <g id="Grupo_1078" data-name="Grupo 1078">
                      <path id="Trazado_30558" data-name="Trazado 30558" d="M604.219,505.194a3.84,3.84,0,0,0-.456-2.624,2.347,2.347,0,0,1,.456,2.624Z" transform="translate(-603.759 -502.568)" fill="#1a2e35"/>
                    </g>
                  </g>
                </g>
              </g>
              <g id="Grupo_1085" data-name="Grupo 1085" transform="translate(9.165 6.995)">
                <g id="Grupo_1084" data-name="Grupo 1084">
                  <g id="Grupo_1083" data-name="Grupo 1083">
                    <g id="Grupo_1082" data-name="Grupo 1082">
                      <path id="Trazado_30559" data-name="Trazado 30559" d="M610.811,505.04c-.048.009-.147-.3-.22-.687a1.516,1.516,0,0,1-.047-.719c.048-.01.146.3.22.686A1.531,1.531,0,0,1,610.811,505.04Z" transform="translate(-610.519 -503.634)" fill="#1a2e35"/>
                    </g>
                  </g>
                </g>
              </g>
              <g id="Grupo_1089" data-name="Grupo 1089" transform="translate(10.227 7.166)">
                <g id="Grupo_1088" data-name="Grupo 1088">
                  <g id="Grupo_1087" data-name="Grupo 1087">
                    <g id="Grupo_1086" data-name="Grupo 1086">
                      <path id="Trazado_30560" data-name="Trazado 30560" d="M612.521,504.958c-.043.022-.2-.205-.349-.506s-.236-.563-.193-.585.2.205.35.506S612.564,504.937,612.521,504.958Z" transform="translate(-611.968 -503.866)" fill="#1a2e35"/>
                    </g>
                  </g>
                </g>
              </g>
              <g id="Grupo_1093" data-name="Grupo 1093" transform="translate(10.56 6.702)">
                <g id="Grupo_1092" data-name="Grupo 1092">
                  <g id="Grupo_1091" data-name="Grupo 1091">
                    <g id="Grupo_1090" data-name="Grupo 1090">
                      <path id="Trazado_30561" data-name="Trazado 30561" d="M613.839,503.79a1.71,1.71,0,0,1-.739-.19c-.391-.15-.694-.309-.677-.355a1.709,1.709,0,0,1,.74.19C613.554,503.586,613.856,503.744,613.839,503.79Z" transform="translate(-612.422 -503.233)" fill="#1a2e35"/>
                    </g>
                  </g>
                </g>
              </g>
              <g id="Grupo_1097" data-name="Grupo 1097" transform="translate(10.925 5.933)">
                <g id="Grupo_1096" data-name="Grupo 1096">
                  <g id="Grupo_1095" data-name="Grupo 1095">
                    <g id="Grupo_1094" data-name="Grupo 1094">
                      <path id="Trazado_30562" data-name="Trazado 30562" d="M614.566,502.7a2.136,2.136,0,0,1-1.645-.514,4.635,4.635,0,0,1,.82.262A4.692,4.692,0,0,1,614.566,502.7Z" transform="translate(-612.92 -502.184)" fill="#1a2e35"/>
                    </g>
                  </g>
                </g>
              </g>
              <g id="Grupo_1101" data-name="Grupo 1101" transform="translate(7.207 5.037)">
                <g id="Grupo_1100" data-name="Grupo 1100">
                  <g id="Grupo_1099" data-name="Grupo 1099">
                    <g id="Grupo_1098" data-name="Grupo 1098">
                      <path id="Trazado_30563" data-name="Trazado 30563" d="M610.106,502.966a2.68,2.68,0,0,1-.865-.349,5.51,5.51,0,0,1-.843-.571,2.7,2.7,0,0,1-.442-.427.5.5,0,0,1-.108-.355.365.365,0,0,1,.269-.294,1.711,1.711,0,0,1,1.782,1.246,1.657,1.657,0,0,1,.053.691c-.024.162-.06.246-.07.243a2.641,2.641,0,0,0-.1-.9,1.688,1.688,0,0,0-.55-.776,1.45,1.45,0,0,0-1.062-.34c-.178.048-.189.231-.072.383a2.8,2.8,0,0,0,.405.4,6.349,6.349,0,0,0,.8.587C609.786,502.808,610.117,502.94,610.106,502.966Z" transform="translate(-607.845 -500.961)" fill="#1a2e35"/>
                    </g>
                  </g>
                </g>
              </g>
              <g id="Grupo_1105" data-name="Grupo 1105" transform="translate(9.211 5.596)">
                <g id="Grupo_1104" data-name="Grupo 1104">
                  <g id="Grupo_1103" data-name="Grupo 1103">
                    <g id="Grupo_1102" data-name="Grupo 1102">
                      <path id="Trazado_30564" data-name="Trazado 30564" d="M610.6,503.124a.922.922,0,0,1,.139-.642,1.529,1.529,0,0,1,.489-.539.936.936,0,0,1,.9-.156.372.372,0,0,1,.108.507,1.019,1.019,0,0,1-.3.329,2.822,2.822,0,0,1-.618.362,1.357,1.357,0,0,1-.636.155c-.007-.028.234-.087.583-.267a3.3,3.3,0,0,0,.57-.377c.191-.136.4-.433.2-.559a.837.837,0,0,0-.718.141,1.536,1.536,0,0,0-.469.467A3.436,3.436,0,0,0,610.6,503.124Z" transform="translate(-610.581 -501.723)" fill="#1a2e35"/>
                    </g>
                  </g>
                </g>
              </g>
              <g id="Grupo_1109" data-name="Grupo 1109" transform="translate(17.889 11.204)">
                <g id="Grupo_1108" data-name="Grupo 1108">
                  <g id="Grupo_1107" data-name="Grupo 1107">
                    <g id="Grupo_1106" data-name="Grupo 1106">
                      <path id="Trazado_30565" data-name="Trazado 30565" d="M628.732,510.062c-.015.029-.372-.19-1.01-.361a4.549,4.549,0,0,0-4.654,1.415c-.436.5-.61.878-.64.862a.855.855,0,0,1,.108-.273,3.847,3.847,0,0,1,.437-.67,4.413,4.413,0,0,1,4.784-1.453,3.9,3.9,0,0,1,.735.314A.837.837,0,0,1,628.732,510.062Z" transform="translate(-622.427 -509.379)" fill="#1a2e35"/>
                    </g>
                  </g>
                </g>
              </g>
              <g id="Grupo_1113" data-name="Grupo 1113" transform="translate(22.89 5.715)">
                <g id="Grupo_1112" data-name="Grupo 1112">
                  <g id="Grupo_1111" data-name="Grupo 1111">
                    <g id="Grupo_1110" data-name="Grupo 1110">
                      <path id="Trazado_30566" data-name="Trazado 30566" d="M631.389,501.887a50.591,50.591,0,0,1-2.133,5.574,50.442,50.442,0,0,1,2.133-5.574Z" transform="translate(-629.254 -501.887)" fill="#1a2e35"/>
                    </g>
                  </g>
                </g>
              </g>
              <g id="Grupo_1117" data-name="Grupo 1117" transform="translate(12.704 10.349)">
                <g id="Grupo_1116" data-name="Grupo 1116">
                  <g id="Grupo_1115" data-name="Grupo 1115">
                    <g id="Grupo_1114" data-name="Grupo 1114">
                      <path id="Trazado_30567" data-name="Trazado 30567" d="M619.309,509.745a11.928,11.928,0,0,1-3.959-1.529c.023-.045.884.358,1.974.778S619.323,509.7,619.309,509.745Z" transform="translate(-615.349 -508.212)" fill="#1a2e35"/>
                    </g>
                  </g>
                </g>
              </g>
              <g id="Grupo_1121" data-name="Grupo 1121" transform="translate(18.645 12.913)">
                <g id="Grupo_1120" data-name="Grupo 1120">
                  <g id="Grupo_1119" data-name="Grupo 1119">
                    <g id="Grupo_1118" data-name="Grupo 1118">
                      <path id="Trazado_30568" data-name="Trazado 30568" d="M624.124,511.727c.02.046-.146.158-.316.325s-.291.327-.336.3.015-.24.213-.432S624.108,511.683,624.124,511.727Z" transform="translate(-623.458 -511.712)" fill="#1a2e35"/>
                    </g>
                  </g>
                </g>
              </g>
              <g id="Grupo_1125" data-name="Grupo 1125" transform="translate(20.09 12.064)">
                <g id="Grupo_1124" data-name="Grupo 1124">
                  <g id="Grupo_1123" data-name="Grupo 1123">
                    <g id="Grupo_1122" data-name="Grupo 1122">
                      <path id="Trazado_30569" data-name="Trazado 30569" d="M626.141,510.572c.019.045-.124.15-.319.237s-.371.119-.39.075.123-.151.319-.237S626.122,510.527,626.141,510.572Z" transform="translate(-625.43 -510.552)" fill="#1a2e35"/>
                    </g>
                  </g>
                </g>
              </g>
              <g id="Grupo_1129" data-name="Grupo 1129" transform="translate(21.583 11.866)">
                <g id="Grupo_1128" data-name="Grupo 1128">
                  <g id="Grupo_1127" data-name="Grupo 1127">
                    <g id="Grupo_1126" data-name="Grupo 1126">
                      <path id="Trazado_30570" data-name="Trazado 30570" d="M628.338,510.5c-.028.042-.207-.031-.432-.04s-.411.04-.434,0,.163-.187.443-.171S628.368,510.463,628.338,510.5Z" transform="translate(-627.469 -510.282)" fill="#1a2e35"/>
                    </g>
                  </g>
                </g>
              </g>
              <g id="Grupo_1133" data-name="Grupo 1133" transform="translate(23.105 12.129)">
                <g id="Grupo_1132" data-name="Grupo 1132">
                  <g id="Grupo_1131" data-name="Grupo 1131">
                    <g id="Grupo_1130" data-name="Grupo 1130">
                      <path id="Trazado_30571" data-name="Trazado 30571" d="M630.015,510.731c0,.048-.106.087-.234.086s-.234-.041-.234-.09.105-.086.235-.086S630.016,510.683,630.015,510.731Z" transform="translate(-629.547 -510.641)" fill="#1a2e35"/>
                    </g>
                  </g>
                </g>
              </g>
            </g>
          </g>
          <g id="Grupo_1136" data-name="Grupo 1136" transform="translate(10.926 4.324)" opacity="0.3">
            <path id="Trazado_30572" data-name="Trazado 30572" d="M626.316,507.182,612.922,501.6l.667-1.617,13.506,5.472Z" transform="translate(-612.922 -499.987)"/>
          </g>
        </g>
        <g id="Grupo_1138" data-name="Grupo 1138" transform="translate(9.972 100.83)">
          <path id="Trazado_30573" data-name="Trazado 30573" d="M717.653,411.614s3.965,25.365-6.415,28.356c-11.04,3.182-34.695,9.15-34.695,9.15l-1.782,62.127-17.3-.615-1.656-69.983a7.644,7.644,0,0,1,3.475-6.058L684.3,411.614Z" transform="translate(-623.437 -411.614)" fill="#ecf5f5" stroke="#6a79a2" stroke-miterlimit="10" stroke-width="1"/>
          <path id="Trazado_30574" data-name="Trazado 30574" d="M611.62,476.637l16.216,6.239L649.8,437.252s37.215,4.389,47.907,2.951c3.818-.514,8.33-2.507,10.606-5.406,4.147-5.284,4.325-12.519,3.552-19.192l-.311-1.434-27.424-1.47-41.975,6.25a11.4,11.4,0,0,0-8.458,6.59Z" transform="translate(-611.62 -411.905)" fill="#ecf5f5" stroke="#6a79a2" stroke-miterlimit="10" stroke-width="1"/>
        </g>
        <g id="Grupo_1172" data-name="Grupo 1172" transform="translate(39.137)">
          <g id="Grupo_1148" data-name="Grupo 1148" transform="translate(28.095)">
            <path id="Trazado_30575" data-name="Trazado 30575" d="M713.51,279.344a7.665,7.665,0,0,0-13.587-2.114c-.7,1-1.2,2.2-2.226,2.872a15.21,15.21,0,0,1-2.945,1.02,5.021,5.021,0,0,0-3.012,5.423c.244,1.305,1.022,2.576.735,3.872-.392,1.772-2.631,2.81-2.693,4.624-.043,1.229.957,2.223,1.924,2.984s2.054,1.57,2.316,2.772a18.016,18.016,0,0,1,.01,2.42,3.51,3.51,0,0,0,3.527,3.113c.924-.042,1.96-.433,2.7.123a6.242,6.242,0,0,1,.762.9,3.007,3.007,0,0,0,3.553.327,11.978,11.978,0,0,0,2.859-2.538,5.764,5.764,0,0,1,3.211-1.971" transform="translate(-689.781 -273.978)" fill="#879dcc"/>
            <g id="Grupo_1143" data-name="Grupo 1143" transform="translate(9.387 7.458)">
              <g id="Grupo_1142" data-name="Grupo 1142">
                <g id="Grupo_1141" data-name="Grupo 1141">
                  <g id="Grupo_1139" data-name="Grupo 1139">
                    <path id="Trazado_30576" data-name="Trazado 30576" d="M724.29,285.646l-.042,2.148-.431,32.158a6.9,6.9,0,0,1-7.3,6.579h0a7.287,7.287,0,0,1-7.327-6.982c-.012-3.96-.1-8.127-.1-8.127s-5.1-.847-6.157-7.5c-.525-3.309-.359-8.735-.08-13.171a7.027,7.027,0,0,1,7.751-6.552Z" transform="translate(-702.595 -284.159)" fill="#ffb39d"/>
                  </g>
                  <g id="Grupo_1140" data-name="Grupo 1140" transform="translate(6.5 24.887)">
                    <path id="Trazado_30577" data-name="Trazado 30577" d="M711.467,320.507a16.929,16.929,0,0,0,8.912-2.377s-2.162,4.571-8.823,3.949Z" transform="translate(-711.467 -318.13)" fill="#ff957e"/>
                  </g>
                </g>
              </g>
            </g>
            <g id="Grupo_1144" data-name="Grupo 1144" transform="translate(22.911 3.242)">
              <path id="Trazado_30578" data-name="Trazado 30578" d="M721.659,278.9c-.047.025-.119-.012-.2-.093l-.4-.4.612.237a2.333,2.333,0,0,0,.332.111c.255.069.492.036.547.128s-.221.344-.637.243a.7.7,0,0,1-.423-.284l.209-.161C721.716,278.79,721.705,278.871,721.659,278.9Z" transform="translate(-721.056 -278.404)" fill="#1a2e35"/>
            </g>
            <path id="Trazado_30579" data-name="Trazado 30579" d="M721.278,278.577a5.463,5.463,0,0,0-1.15,5.086,5.924,5.924,0,0,0,3.77,3.822c.44.149.959.3,1.128.709a1.486,1.486,0,0,1-.183,1.092,5.394,5.394,0,0,0,1.963,6.3,7.442,7.442,0,0,0,2.168,6.787,3.851,3.851,0,0,1,1.807-2.842,18.766,18.766,0,0,0,2.824-2.151,4.557,4.557,0,0,0,.612-5.165,3.148,3.148,0,0,1-.625-1.536c.028-.658.6-1.155,1.055-1.655a5.888,5.888,0,0,0-.22-8c-.5-.492-1.1-.9-1.566-1.421a22.454,22.454,0,0,1-1.476-2.245,7.46,7.46,0,0,0-7.393-2.856,5.161,5.161,0,0,0-3.879,6.283" transform="translate(-697.84 -274.08)" fill="#879dcc"/>
            <path id="Trazado_30580" data-name="Trazado 30580" d="M713.637,281.2a9.485,9.485,0,0,1-.775,3.631,3.829,3.829,0,0,1-2.82,2.214c-1.213.143-2.367-.481-3.543-.811-1.538-.431-3.452-.229-4.343,1.1-.621.925-.739,3.069-2.205,3.671-1.038.426-1.681-.776-2.7-.308-1.7.779-1.416,3.713-3.13,4.464.551-1.418.284-3,.275-4.522s.4-3.254,1.737-3.974a18.487,18.487,0,0,1,2.411-.7,8.408,8.408,0,0,0,2.984-2.533,4.709,4.709,0,0,1,3.334-1.889c1.258.03,2.385.957,3.641.9a7.645,7.645,0,0,0,2.8-1.18c.919-.448,2.2-.588,2.818.223" transform="translate(-690.941 -275.83)" fill="#6a79a2"/>
            <g id="Grupo_1145" data-name="Grupo 1145" transform="translate(22.969 3.252)">
              <path id="Trazado_30581" data-name="Trazado 30581" d="M734.346,282.268c-.024.026-.179-.138-.532-.29a2.955,2.955,0,0,0-1.587-.175,9.6,9.6,0,0,0-2.308.793,6.647,6.647,0,0,1-3.044.572,6.387,6.387,0,0,1-2.968-.908,6.244,6.244,0,0,1-1.853-1.725,5.838,5.838,0,0,1-.783-1.509,1.578,1.578,0,0,1-.13-.609,11.284,11.284,0,0,0,1.129,1.956,6.382,6.382,0,0,0,1.818,1.585,6.286,6.286,0,0,0,2.809.829c2.146.195,3.8-1.162,5.3-1.252a2.868,2.868,0,0,1,1.684.311C734.24,282.053,734.359,282.259,734.346,282.268Z" transform="translate(-721.134 -278.417)" fill="#6a79a2"/>
            </g>
            <g id="Grupo_1146" data-name="Grupo 1146" transform="translate(0.853 3.138)">
              <path id="Trazado_30582" data-name="Trazado 30582" d="M690.946,295.473a10.726,10.726,0,0,0,1.266.1,5.1,5.1,0,0,0,3.131-1.21,4.541,4.541,0,0,0,1.319-1.9,9.136,9.136,0,0,0,.481-2.667c.059-.965.044-2,.188-3.068a5.9,5.9,0,0,1,1.247-3.105,3.745,3.745,0,0,1,1.39-1.049,3.438,3.438,0,0,1,1.679-.221c1.1.116,2.057.515,3,.615a7.339,7.339,0,0,0,4.847-1.112,7.63,7.63,0,0,0,2.368-2.461c.418-.7.563-1.141.595-1.128a1.093,1.093,0,0,1-.081.325,6.47,6.47,0,0,1-.385.877,7.36,7.36,0,0,1-2.347,2.613,7.514,7.514,0,0,1-5.036,1.237c-1-.1-1.977-.495-3-.592a3.067,3.067,0,0,0-1.5.2,3.37,3.37,0,0,0-1.245.945,5.578,5.578,0,0,0-1.168,2.911c-.144,1.034-.138,2.059-.207,3.039a9.29,9.29,0,0,1-.536,2.758,4.775,4.775,0,0,1-1.442,1.993,5.1,5.1,0,0,1-3.3,1.152,4.242,4.242,0,0,1-.952-.13A1.1,1.1,0,0,1,690.946,295.473Z" transform="translate(-690.946 -278.262)" fill="#6a79a2"/>
            </g>
            <g id="Grupo_1147" data-name="Grupo 1147" transform="translate(4.111 20.816)">
              <path id="Trazado_30583" data-name="Trazado 30583" d="M700.291,302.394a2.1,2.1,0,0,1-.282,1,6.58,6.58,0,0,1-3.6,3.374,2.088,2.088,0,0,1-1.017.217,9.189,9.189,0,0,0,4.9-4.591Z" transform="translate(-695.393 -302.393)" fill="#6a79a2"/>
            </g>
          </g>
          <g id="Grupo_1150" data-name="Grupo 1150" transform="translate(0 45.731)">
            <g id="Grupo_1149" data-name="Grupo 1149">
              <path id="Trazado_30584" data-name="Trazado 30584" d="M655.365,353.038l-2.972-3.639c-1.8-2.734.358-4.16.575-4.761a6.691,6.691,0,0,1,1.418-2.542l-.672-1.124a30.872,30.872,0,0,1-2.248-3.632c-.257-.727,1-1.291,1.468-.675,1.056,1.4,2.867,3.771,3.657,4.593,1.04,1.081,3.559,4,3.93,1.41a11.336,11.336,0,0,0-.3-4.5c-.057-.777,1.415-1.517,1.692.029.116.647.467,1.734.668,3.316.09.705.053,1.632.13,2.338.091.823,1.108,3.621,1.215,4.209Z" transform="translate(-651.431 -336.402)" fill="#ffb39d"/>
            </g>
          </g>
          <path id="Trazado_30585" data-name="Trazado 30585" d="M683.462,338.851l-9.809,24.526-8.014-16.051-10.144,6.053,9.894,20.229a9.2,9.2,0,0,0,8.692,5.084,8.5,8.5,0,0,0,6.659-3.948C684.347,368.99,690,355.2,690,355.2,690,355.9,683.462,338.851,683.462,338.851Z" transform="translate(-652.518 -291.326)" fill="#6a79a2"/>
          <g id="Grupo_1158" data-name="Grupo 1158" transform="translate(30.642 40.452)">
            <g id="Grupo_1156" data-name="Grupo 1156">
              <g id="Grupo_1155" data-name="Grupo 1155">
                <g id="Grupo_1154" data-name="Grupo 1154">
                  <g id="Grupo_1153" data-name="Grupo 1153">
                    <g id="Grupo_1152" data-name="Grupo 1152">
                      <g id="Grupo_1151" data-name="Grupo 1151">
                        <path id="Trazado_30586" data-name="Trazado 30586" d="M729.375,355.958l4.951-21.416c-5.133-4.932-12.968-5.346-12.968-5.346L718.8,330.91a8.9,8.9,0,0,1-10.316-.289L706.6,329.2c-6.064.733-10.472,2.773-13.037,7.073l2.684,21.328,3.116,10.228-6.1,22.312,40.793,1.7-7.5-25.91c-.32.554,2.818-9.972,2.818-9.972" transform="translate(-693.259 -329.196)" fill="#6a79a2"/>
                      </g>
                    </g>
                  </g>
                </g>
              </g>
            </g>
            <g id="Grupo_1157" data-name="Grupo 1157" transform="translate(35.046 6.003)">
              <path id="Trazado_30587" data-name="Trazado 30587" d="M743.083,362a7.377,7.377,0,0,0-.256-1.034c-.173-.663-.42-1.622-.66-2.82a39.228,39.228,0,0,1-.718-9.494,25.005,25.005,0,0,1,.7-5.185,10.007,10.007,0,0,1,1.856-3.791,7.316,7.316,0,0,1,2.179-1.837c.6-.318.968-.422.959-.45a.929.929,0,0,0-.271.057,5.083,5.083,0,0,0-.743.284,7.018,7.018,0,0,0-2.293,1.805,9.971,9.971,0,0,0-1.963,3.856,24.221,24.221,0,0,0-.736,5.246,36.29,36.29,0,0,0,.812,9.554c.269,1.2.55,2.155.759,2.809.105.327.2.577.261.747A.911.911,0,0,0,743.083,362Z" transform="translate(-741.097 -337.39)" fill="#1a2e35"/>
            </g>
          </g>
          <g id="Grupo_1159" data-name="Grupo 1159" transform="translate(36.189 89.152)">
            <path id="Trazado_30588" data-name="Trazado 30588" d="M715.714,405.953a73.543,73.543,0,0,1-6.869,4.168c-3.01,1.432-3.15,1.166-3.267.79-.314-1.011,5.2-2.719,3.782-3.031s-6.475,2.864-6.759,1.794c-.37-1.393,5.432-3.076,5.912-3.255s.22-.87-.2-.686c-.61.264-7.081,2.885-7.457,1.519-.21-.757,1.2-.972,1.2-.972s6.247-2.01,6.047-2.65-3.914.41-5.138.853c-1.209.439-1.924.048-1.688-.644.161-.473,3.875-1.92,5.1-2.331s4.593-1.481,2.468-2.292-3.462-2.216-3.561-2.838.745-.966,1.243-.468a8.508,8.508,0,0,0,1.953,1.2,5.553,5.553,0,0,0,1.763.522c.53.064,1,.1,1.423.132l4.512.34,2.277,5.972Z" transform="translate(-700.83 -395.673)" fill="#ffb39d"/>
          </g>
          <path id="Trazado_30589" data-name="Trazado 30589" d="M739.594,335.355a15.9,15.9,0,0,1,5.341,7.991c1,3.278,3.875,14.376,5.99,22.633a10.588,10.588,0,0,1-6.932,12.678l-23.887,12.905-3.9-10.1,20.957-13.774L732.1,348.938c-.832-2.855-1.192-5.757-.147-8.541C733.021,337.543,735.192,334.822,739.594,335.355Z" transform="translate(-668.753 -290.373)" fill="#6a79a2"/>
          <g id="Grupo_1160" data-name="Grupo 1160" transform="translate(47.225 46.191)">
            <path id="Trazado_30590" data-name="Trazado 30590" d="M745.3,378.538a.516.516,0,0,1-.112.075l-.346.2-1.357.755-5.151,2.8-18.234,9.809-.171.092-.07-.182L715.949,382l-.054-.14.125-.083,9.4-6.182,11.561-7.59-.075.2c-1.379-5.168-2.407-10.033-3.38-14.387q-.357-1.634-.692-3.171a24.725,24.725,0,0,1-.553-3,15.3,15.3,0,0,1,.455-5.4,7.979,7.979,0,0,1,2.275-3.763,5.777,5.777,0,0,1,2.969-1.4,4.785,4.785,0,0,1,2.055.121,2.963,2.963,0,0,1,.659.273c-.007.018-.226-.093-.675-.211a4.915,4.915,0,0,0-2.018-.06,5.7,5.7,0,0,0-2.868,1.409,7.827,7.827,0,0,0-2.174,3.693,15.181,15.181,0,0,0-.4,5.307,24.69,24.69,0,0,0,.568,2.966q.344,1.535.709,3.168c.995,4.345,2.043,9.214,3.426,14.356l.035.13-.111.073-11.553,7.6-9.4,6.174.072-.222,3.888,10.1-.241-.089,18.3-9.687,5.2-2.719,1.382-.708.358-.175A.484.484,0,0,1,745.3,378.538Z" transform="translate(-715.895 -337.03)" fill="#1a2e35"/>
          </g>
          <g id="Grupo_1161" data-name="Grupo 1161" transform="translate(33.715 52.69)">
            <path id="Trazado_30591" data-name="Trazado 30591" d="M701.21,345.9a3.78,3.78,0,0,1,.045.968,11.477,11.477,0,0,1-.44,2.608,35.475,35.475,0,0,1-1.315,3.683,25.181,25.181,0,0,0-1.454,4.5,13.623,13.623,0,0,0-.031,4.686,26.937,26.937,0,0,0,.9,3.764c.328,1.056.62,1.9.817,2.493a4.747,4.747,0,0,1,.271.928,4.625,4.625,0,0,1-.409-.876c-.24-.573-.573-1.409-.936-2.461a24.349,24.349,0,0,1-.993-3.792,13.5,13.5,0,0,1,0-4.812,23.927,23.927,0,0,1,1.5-4.56c.563-1.356,1.062-2.574,1.382-3.628A17.177,17.177,0,0,0,701.21,345.9Z" transform="translate(-697.453 -345.902)" fill="#1a2e35"/>
          </g>
          <g id="Grupo_1162" data-name="Grupo 1162" transform="translate(68.823 76.954)">
            <path id="Trazado_30592" data-name="Trazado 30592" d="M745.377,379.165c-.008-.045.248-.145.685-.142a3.208,3.208,0,0,1,2.748,1.754c.187.4.2.67.159.681a4.391,4.391,0,0,0-3.592-2.293Z" transform="translate(-745.377 -379.023)" fill="#1a2e35"/>
          </g>
          <g id="Grupo_1168" data-name="Grupo 1168" transform="translate(43.599 58.6)">
            <g id="Grupo_1163" data-name="Grupo 1163">
              <path id="Trazado_30593" data-name="Trazado 30593" d="M717.634,355.358c-.005,0,.01-.036.047-.1a1.836,1.836,0,0,1,.182-.253,2.871,2.871,0,0,1,.944-.741,2.819,2.819,0,0,1,1.887-.228,2.912,2.912,0,0,1,1.96,1.567,3.091,3.091,0,0,1-.195,3.026l-1.938,2.885-4.475,6.607-.034.05-.057.021-.512.193-4.243,1.6-.253.1v-.27c.006-1.734.011-3.379.016-4.9v-.053l.029-.042,4.758-6.868,1.368-1.924a4.947,4.947,0,0,1,.516-.663,4.915,4.915,0,0,1-.428.723l-1.289,1.978-4.644,6.946.029-.1c.005,1.525.01,3.17.016,4.9l-.252-.174,4.24-1.605.512-.193-.09.071,4.5-6.589,1.966-2.861a2.814,2.814,0,0,0,.215-2.739,2.68,2.68,0,0,0-3.544-1.321A3.785,3.785,0,0,0,717.634,355.358Z" transform="translate(-710.945 -353.97)" fill="#e1e1e1"/>
            </g>
            <g id="Grupo_1164" data-name="Grupo 1164" transform="translate(0.412 10.803)">
              <path id="Trazado_30594" data-name="Trazado 30594" d="M716.079,371.9a20.389,20.389,0,0,1-4.569-3.178,20.385,20.385,0,0,1,4.569,3.178Z" transform="translate(-711.507 -368.716)" fill="#e1e1e1"/>
            </g>
            <g id="Grupo_1165" data-name="Grupo 1165" transform="translate(0.276 13.793)">
              <path id="Trazado_30595" data-name="Trazado 30595" d="M712.9,374.183c-.1.044-.353-.342-.773-.69s-.835-.543-.809-.649.563-.062,1.055.358S713,374.152,712.9,374.183Z" transform="translate(-711.321 -372.798)" fill="#e1e1e1"/>
            </g>
            <g id="Grupo_1166" data-name="Grupo 1166" transform="translate(7.102 1.194)">
              <path id="Trazado_30596" data-name="Trazado 30596" d="M725,358.8a19.265,19.265,0,0,1-4.359-3.195A19.206,19.206,0,0,1,725,358.8Z" transform="translate(-720.639 -355.599)" fill="#e1e1e1"/>
            </g>
            <g id="Grupo_1167" data-name="Grupo 1167" transform="translate(2.695 2.796)">
              <path id="Trazado_30597" data-name="Trazado 30597" d="M714.628,367.2a7.38,7.38,0,0,1,.837-1.448c.557-.867,1.346-2.051,2.235-3.347s1.708-2.459,2.31-3.294a11.569,11.569,0,0,1,1.016-1.325,31.355,31.355,0,0,1-3.011,4.835c-.889,1.3-1.714,2.456-2.328,3.284A7.27,7.27,0,0,1,714.628,367.2Z" transform="translate(-714.624 -357.787)" fill="#e1e1e1"/>
            </g>
          </g>
          <g id="Grupo_1169" data-name="Grupo 1169" transform="translate(0.397 54.833)">
            <path id="Trazado_30598" data-name="Trazado 30598" d="M653.271,348.828a11.864,11.864,0,0,1,.82,1.1,9.764,9.764,0,0,0,.983,1.082,2.644,2.644,0,0,1,.6.721.942.942,0,0,1-.128,1.1,1.158,1.158,0,0,1-1.068.2,2.64,2.64,0,0,1-.852-.4,4.016,4.016,0,0,1-1.052-1.125,3.7,3.7,0,0,1-.6-1.253,7.782,7.782,0,0,1,.82,1.1,4.22,4.22,0,0,0,1.027.988,2.434,2.434,0,0,0,.741.328.818.818,0,0,0,.72-.114.578.578,0,0,0,.054-.661,2.472,2.472,0,0,0-.511-.63,7.733,7.733,0,0,1-.957-1.176A3.194,3.194,0,0,1,653.271,348.828Z" transform="translate(-651.973 -348.827)" fill="#ff957e"/>
          </g>
          <g id="Grupo_1170" data-name="Grupo 1170" transform="translate(1.541 52.703)">
            <path id="Trazado_30599" data-name="Trazado 30599" d="M655,345.921a8.692,8.692,0,0,1,1.253,1.329l1.277,1.508c.235.294.493.565.741.93a1.342,1.342,0,0,1,.234.668,1.067,1.067,0,0,1-.253.712,1.354,1.354,0,0,1-1.308.45,2.236,2.236,0,0,1-1.107-.585,14.176,14.176,0,0,1-1.267-1.551,8.689,8.689,0,0,1-1.033-1.505,8.722,8.722,0,0,1,1.243,1.337,18.906,18.906,0,0,0,1.291,1.457,1.922,1.922,0,0,0,.936.479.983.983,0,0,0,.95-.323.741.741,0,0,0,0-.939c-.2-.308-.475-.615-.7-.907l-1.214-1.56A8.62,8.62,0,0,1,655,345.921Z" transform="translate(-653.535 -345.92)" fill="#ff957e"/>
          </g>
          <g id="Grupo_1171" data-name="Grupo 1171" transform="translate(20.891 71.953)">
            <path id="Trazado_30600" data-name="Trazado 30600" d="M680.1,376.827a14.12,14.12,0,0,1,.081-4.631,14.177,14.177,0,0,1-.081,4.631Z" transform="translate(-679.948 -372.196)" fill="#1a2e35"/>
          </g>
        </g>
      </g>
      <path id="Trazado_30601" data-name="Trazado 30601" d="M713.38,441.3c-5.692-.179-3.01-8.531-2.87-17.614.088-5.7,3.872-11.282,8-15.206a19.45,19.45,0,0,1,7.247-4.047,45.024,45.024,0,0,1,21.976-1.411S749.437,442.438,713.38,441.3Z" transform="translate(-627.891 -308.291)" fill="#2cccd3"/>
    </g>
    <g id="Grupo_1181" data-name="Grupo 1181" transform="translate(515.543 190.801)">
      <g id="Grupo_1178" data-name="Grupo 1178" transform="translate(0)">
        <g id="Grupo_1175" data-name="Grupo 1175" transform="translate(2.478)">
          <path id="Trazado_30602" data-name="Trazado 30602" d="M593.089,223.628a5.657,5.657,0,0,1,2.852.624,3.173,3.173,0,0,0,1.294.317l1.155-.026V209.892a2.2,2.2,0,0,0-2.21-2.2H581.853v-.964a2.953,2.953,0,0,1,.311-1.291,5.869,5.869,0,0,0,.5-3.587,6.081,6.081,0,0,0-5.205-4.87c-6.281-.926-6.639,2.4-6.639,5.892a5.849,5.849,0,0,0,.507,2.387,2.947,2.947,0,0,1,.265,1.2V207.7H557.625a2.2,2.2,0,0,0-2.209,2.2V248.52a1.794,1.794,0,0,0,1.8,1.788h39.376a1.794,1.794,0,0,0,1.8-1.788V234.56H596.8a2.884,2.884,0,0,0-1.074.21,5.961,5.961,0,0,1-8.182-5.741A5.752,5.752,0,0,1,593.089,223.628Z" transform="translate(-555.416 -196.828)" fill="#2cccd3"/>
        </g>
        <g id="Grupo_1176" data-name="Grupo 1176" transform="translate(2.478 0.021)" opacity="0.3">
          <path id="Trazado_30603" data-name="Trazado 30603" d="M593.089,223.636a5.657,5.657,0,0,1,2.852.624,3.173,3.173,0,0,0,1.294.317l1.155-.026V209.9a2.2,2.2,0,0,0-2.21-2.2H581.853v-.964a2.953,2.953,0,0,1,.311-1.291,5.869,5.869,0,0,0,.5-3.587,6.117,6.117,0,0,0-5.328-4.888c-7.043-.779-6.516,2.415-6.516,5.91a5.849,5.849,0,0,0,.507,2.387,2.947,2.947,0,0,1,.265,1.2V207.7H557.625a2.2,2.2,0,0,0-2.209,2.2v38.628a1.794,1.794,0,0,0,1.8,1.788h39.376a1.794,1.794,0,0,0,1.8-1.788V234.568H596.8a2.884,2.884,0,0,0-1.074.21,5.961,5.961,0,0,1-8.182-5.741A5.752,5.752,0,0,1,593.089,223.636Z" transform="translate(-555.416 -196.856)"/>
        </g>
        <g id="Grupo_1177" data-name="Grupo 1177" transform="translate(0 0.12)">
          <path id="Trazado_30604" data-name="Trazado 30604" d="M589.706,223.672a5.657,5.657,0,0,1,2.852.624,3.172,3.172,0,0,0,1.294.317l1.155-.026V209.936a2.2,2.2,0,0,0-2.209-2.2H578.47v-.964a2.945,2.945,0,0,1,.312-1.291,5.874,5.874,0,0,0,.5-3.587,5.969,5.969,0,0,0-11.844,1.022,5.85,5.85,0,0,0,.507,2.387,2.945,2.945,0,0,1,.265,1.2v1.237H554.242a2.2,2.2,0,0,0-2.209,2.2v38.628a1.794,1.794,0,0,0,1.8,1.788h39.376a1.794,1.794,0,0,0,1.8-1.788V234.6h-1.594a2.884,2.884,0,0,0-1.074.21,5.961,5.961,0,0,1-8.182-5.741A5.752,5.752,0,0,1,589.706,223.672Z" transform="translate(-552.033 -196.992)" fill="#2cccd3"/>
        </g>
      </g>
      <g id="Grupo_1179" data-name="Grupo 1179" transform="translate(47.13 11.032)">
        <path id="Trazado_30605" data-name="Trazado 30605" d="M616.367,238.68v13.972a2.209,2.209,0,0,0,2.209,2.209h38.864a1.8,1.8,0,0,0,1.8-1.8V213.686a1.8,1.8,0,0,0-1.8-1.8H643.4v1.594a2.868,2.868,0,0,0,.211,1.073,5.956,5.956,0,0,1-5.776,8.182,6.013,6.013,0,0,1-5.708-5.541,5.915,5.915,0,0,1,.547-2.936,2.951,2.951,0,0,0,.292-1.255v-1.118H618.576a2.209,2.209,0,0,0-2.209,2.209V238.68Z" transform="translate(-616.367 -211.887)" fill="#1a2e35"/>
      </g>
      <g id="Grupo_1180" data-name="Grupo 1180" transform="translate(32.099 11.032)">
        <path id="Trazado_30606" data-name="Trazado 30606" d="M622.421,217.2a5.916,5.916,0,0,1,.547-2.936A2.95,2.95,0,0,0,623.26,213v-1.118H608.874a2.209,2.209,0,0,0-2.209,2.209v14.327h-.97a2.989,2.989,0,0,1-1.3-.311,5.965,5.965,0,1,0-.179,10.833,2.983,2.983,0,0,1,1.2-.265h1.245v13.972a2.209,2.209,0,0,0,2.209,2.209h38.864a1.8,1.8,0,0,0,1.8-1.8V213.686a1.8,1.8,0,0,0-1.8-1.8H633.693v1.594a2.854,2.854,0,0,0,.212,1.073,5.958,5.958,0,0,1-5.776,8.182A6.013,6.013,0,0,1,622.421,217.2Z" transform="translate(-595.85 -211.887)" fill="#6a79a2"/>
      </g>
    </g>
    <path id="Trazado_30607" data-name="Trazado 30607" d="M490.6,319.439s-16.566.126-18.618,17.623l-1.029,13,15.018-.294,2.052-13.445" transform="translate(-14.809 -38.815)" fill="#ecf5f5" stroke="#6a79a2" stroke-miterlimit="10" stroke-width="1"/>
  </g>
</svg>
