<svg id="share-24px_1_" data-name="share-24px (1)" xmlns="http://www.w3.org/2000/svg" width="24" height="24" viewBox="0 0 24 24">
  <path id="Trazado_625" data-name="Trazado 625" d="M0,0H24V24H0Z" fill="none"/>
  <path id="Trazado_626" data-name="Trazado 626" d="M18.039,16.1a2.921,2.921,0,0,0-1.965.771L8.925,12.717a3.276,3.276,0,0,0,.09-.7,3.276,3.276,0,0,0-.09-.7L15.993,7.2A3,3,0,1,0,15.031,5a3.276,3.276,0,0,0,.09.7L8.053,9.822a3,3,0,1,0,0,4.387l7.138,4.167a2.823,2.823,0,0,0-.08.651A2.928,2.928,0,1,0,18.039,16.1Z" transform="translate(-0.023 -0.016)" fill="#5e6d88"/>
</svg>
