<svg id="update-24px" xmlns="http://www.w3.org/2000/svg" width="24" height="24" viewBox="0 0 24 24">
  <g id="Grupo_279" data-name="Grupo 279">
    <rect id="Rectángulo_1439" data-name="Rectángulo 1439" width="24" height="24" fill="none"/>
  </g>
  <g id="Grupo_282" data-name="Grupo 282">
    <g id="Grupo_281" data-name="Grupo 281">
      <g id="Grupo_280" data-name="Grupo 280">
        <path id="Trazado_779" data-name="Trazado 779" d="M21,10.12H14.22L16.96,7.3a7.039,7.039,0,0,0-9.88-.1,6.875,6.875,0,0,0,0,9.79,7.02,7.02,0,0,0,9.88,0A6.513,6.513,0,0,0,19,12.1h2a9.341,9.341,0,0,1-2.64,6.29,9.054,9.054,0,0,1-12.72,0A8.84,8.84,0,0,1,5.62,5.81a8.987,8.987,0,0,1,12.65,0L21,3ZM12.5,8v4.25L16,14.33l-.72,1.21L11,13V8Z" fill="#5e6d88"/>
      </g>
    </g>
  </g>
</svg>
