<svg id="account_circle_black_24dp" xmlns="http://www.w3.org/2000/svg" width="104" height="104" viewBox="0 0 104 104">
  <path id="Trazado_30284" data-name="Trazado 30284" d="M0,0H104V104H0Z" fill="none"/>
  <path id="Trazado_30285" data-name="Trazado 30285" d="M45.333,2A43.333,43.333,0,1,0,88.667,45.333,43.349,43.349,0,0,0,45.333,2Zm0,13a13,13,0,1,1-13,13A12.983,12.983,0,0,1,45.333,15Zm0,61.533a31.2,31.2,0,0,1-26-13.953c.13-8.623,17.333-13.347,26-13.347,8.623,0,25.87,4.723,26,13.347A31.2,31.2,0,0,1,45.333,76.533Z" transform="translate(6.667 6.667)" fill="#aab4c8"/>
</svg>
